<svg width="284" height="86" viewBox="0 0 284 86" fill="none" xmlns="http://www.w3.org/2000/svg">
<path d="M266.913 0.371811H16.9437C7.92803 0.371811 0.619568 7.6648 0.619568 16.6643V68.9073C0.619568 77.9068 7.92803 85.2021 16.9437 85.2021H266.913C275.933 85.2021 283.238 77.9068 283.238 68.9073V16.6643C283.238 7.6648 275.933 0.371811 266.913 0.371811Z" fill="#E8E8E8"/>
<path d="M65.7828 46.2314C64.4212 39.3348 70.4299 35.6505 70.8702 35.3927C69.9489 34.1653 68.8777 33.2378 67.7972 32.5683C64.2057 30.3326 59.8303 30.1244 57.2257 31.268C57.2007 31.2786 57.1726 31.2916 57.1477 31.3019C54.6086 32.4093 51.7199 32.4093 49.1808 31.3019C49.1527 31.2916 49.1277 31.2786 49.1028 31.268C46.4982 30.1244 42.1228 30.3326 38.5313 32.5683C34.9398 34.8012 31.4483 39.8429 33.219 49.5093C34.9898 59.1757 41.4482 65.0483 41.4482 65.0483C41.4482 65.0483 44.5213 67.7007 48.5812 65.9341C51.1202 64.8295 52.2757 64.6366 52.7848 64.6497C53.0378 64.655 53.2907 64.655 53.5437 64.6497C54.0527 64.6366 55.2083 64.8295 57.7473 65.9341C61.8072 67.7007 64.8802 65.0483 64.8802 65.0483C64.8802 65.0483 69.4055 60.9345 71.9196 53.923C69.7584 52.9278 66.6698 50.747 65.7828 46.2314Z" fill="#191919"/>
<path d="M52.0228 30.9033C52.0228 30.9033 50.8873 21.2682 61.762 19.5433L61.7192 20.8357C61.5386 26.1717 57.3577 30.5099 52.0228 30.9033Z" fill="#191919"/>
<path d="M94.0136 22.5858C94.0136 21.7625 93.9091 21.0014 93.7 20.298C93.4941 19.5947 93.1739 18.9875 92.7394 18.4795C92.3048 17.9688 91.7559 17.57 91.0893 17.2808C90.4261 16.9941 89.5831 16.851 88.5506 16.851H86.3745V28.607H88.5637C89.5275 28.607 90.3411 28.4873 91.0109 28.2499C91.6775 28.0158 92.2329 27.6483 92.6773 27.1533C93.1249 26.658 93.4582 26.0329 93.6804 25.2799C93.9026 24.5267 94.0136 23.628 94.0136 22.5858ZM95.448 22.5206C95.448 23.7089 95.2977 24.7563 95.0004 25.6628C94.6998 26.5696 94.2587 27.3278 93.6739 27.9401C93.089 28.5522 92.3702 29.0136 91.5141 29.326C90.6548 29.6413 89.6321 29.7979 88.4395 29.7979H85.6492C85.5185 29.7979 85.3845 29.7483 85.244 29.6492C85.1068 29.5504 85.0349 29.3704 85.0349 29.1098V16.3482C85.0349 16.085 85.1068 15.9053 85.244 15.8062C85.3845 15.7097 85.5185 15.6601 85.6492 15.6601H88.629C89.8314 15.6601 90.8476 15.8245 91.6775 16.1528C92.5074 16.4786 93.1968 16.9449 93.7555 17.5439C94.3143 18.1459 94.739 18.8678 95.0233 19.7065C95.3075 20.5481 95.448 21.4863 95.448 22.5206Z" fill="#191919"/>
<path d="M105.793 24.6525C105.793 24.0923 105.739 23.5554 105.629 23.0449C105.519 22.537 105.335 22.0861 105.082 21.6978C104.824 21.3072 104.484 20.997 104.053 20.7677C103.622 20.5384 103.085 20.4238 102.444 20.4238C101.852 20.4238 101.338 20.5307 100.911 20.7417C100.48 20.9526 100.129 21.2446 99.8556 21.6195C99.5818 21.9948 99.378 22.438 99.2445 22.9486C99.1142 23.4568 99.0508 24.0063 99.0508 24.5979C99.0508 25.1658 99.1042 25.705 99.2144 26.2209C99.3213 26.7344 99.5049 27.1823 99.7587 27.5679C100.016 27.9562 100.356 28.2611 100.787 28.4877C101.218 28.712 101.759 28.8266 102.4 28.8266C102.991 28.8266 103.502 28.7197 103.933 28.5087C104.364 28.2974 104.714 28.0058 104.988 27.6359C105.262 27.2633 105.466 26.8231 105.596 26.3122C105.726 25.8016 105.793 25.2491 105.793 24.6525ZM107.172 24.5325C107.172 25.3194 107.072 26.0439 106.868 26.7058C106.661 27.3673 106.357 27.9432 105.95 28.4331C105.546 28.9203 105.041 29.3005 104.437 29.5742C103.829 29.8478 103.125 29.9834 102.32 29.9834C101.549 29.9834 100.874 29.8608 100.293 29.6185C99.712 29.3735 99.2244 29.0246 98.8371 28.5687C98.4431 28.1128 98.1558 27.5629 97.9588 26.9141C97.7651 26.2652 97.6683 25.5333 97.6683 24.7175C97.6683 23.9307 97.7718 23.2065 97.9722 22.5446C98.1726 21.8801 98.4764 21.3072 98.8805 20.8223C99.2845 20.3378 99.7888 19.9625 100.393 19.6916C101.001 19.4233 101.709 19.2877 102.52 19.2877C103.292 19.2877 103.97 19.4076 104.551 19.6473C105.132 19.8895 105.613 20.2361 106 20.692C106.387 21.1456 106.678 21.6978 106.878 22.3467C107.072 22.9952 107.172 23.7224 107.172 24.5325Z" fill="#191919"/>
<path d="M123.134 19.6706C123.134 19.707 123.127 19.7489 123.117 19.7955C123.107 19.8425 123.093 19.8947 123.079 19.9547L120.013 29.5792C119.999 29.6365 119.972 29.6835 119.931 29.7199C119.893 29.7566 119.838 29.7878 119.773 29.8087C119.707 29.8293 119.621 29.8451 119.515 29.853C119.408 29.8605 119.284 29.8633 119.137 29.8633C118.982 29.8633 118.851 29.8581 118.741 29.8475C118.635 29.8345 118.545 29.819 118.473 29.7981C118.405 29.7748 118.353 29.746 118.312 29.7096C118.27 29.6732 118.243 29.629 118.229 29.5792L115.93 21.7783L115.909 21.6898L115.885 21.7783L113.74 29.5792C113.726 29.6365 113.696 29.6835 113.651 29.7199C113.61 29.7566 113.551 29.7878 113.472 29.8087C113.397 29.8293 113.304 29.8451 113.194 29.853C113.084 29.8605 112.96 29.8633 112.822 29.8633C112.675 29.8633 112.551 29.8581 112.448 29.8475C112.348 29.8345 112.262 29.819 112.193 29.7981C112.121 29.7748 112.07 29.746 112.032 29.7096C111.998 29.6732 111.97 29.629 111.956 29.5792L108.914 19.9547C108.89 19.9025 108.873 19.8531 108.863 19.801C108.852 19.7489 108.849 19.707 108.849 19.6706C108.849 19.6185 108.859 19.5742 108.88 19.5375C108.904 19.5012 108.938 19.4751 108.99 19.4569C109.042 19.4388 109.107 19.4257 109.189 19.4178C109.265 19.4099 109.365 19.4075 109.481 19.4075C109.633 19.4075 109.76 19.4127 109.853 19.423C109.949 19.436 110.021 19.4518 110.066 19.4727C110.114 19.496 110.152 19.5245 110.172 19.5612C110.193 19.5976 110.21 19.6418 110.227 19.6912L112.843 28.3234L112.864 28.3992L112.888 28.3234L115.263 19.6912C115.277 19.6418 115.297 19.5976 115.321 19.5612C115.349 19.5245 115.387 19.496 115.431 19.4727C115.479 19.4518 115.545 19.436 115.627 19.423C115.713 19.4127 115.823 19.4075 115.95 19.4075C116.074 19.4075 116.181 19.4127 116.256 19.423C116.339 19.436 116.404 19.4518 116.456 19.4727C116.504 19.496 116.542 19.5245 116.566 19.5612C116.586 19.5976 116.603 19.6418 116.621 19.6912L119.181 28.3234L119.202 28.3992L119.212 28.3234L121.818 19.6912C121.835 19.6418 121.856 19.5976 121.88 19.5612C121.904 19.5245 121.945 19.496 121.996 19.4727C122.045 19.4518 122.117 19.436 122.206 19.423C122.299 19.4127 122.419 19.4075 122.564 19.4075C122.68 19.4075 122.777 19.4099 122.849 19.4178C122.921 19.4257 122.979 19.4412 123.024 19.4621C123.065 19.483 123.096 19.5115 123.11 19.543C123.127 19.5767 123.134 19.6185 123.134 19.6706Z" fill="#191919"/>
<path d="M133.688 29.5791C133.688 29.6235 133.677 29.6627 133.653 29.699C133.632 29.7354 133.6 29.764 133.548 29.7874C133.502 29.8084 133.436 29.8266 133.355 29.8423C133.271 29.8552 133.166 29.8633 133.04 29.8633C132.91 29.8633 132.802 29.8552 132.718 29.8423C132.637 29.8266 132.567 29.8084 132.522 29.7874C132.473 29.764 132.441 29.7354 132.417 29.699C132.396 29.6627 132.385 29.6235 132.385 29.5791V23.7114C132.385 23.0994 132.34 22.6042 132.242 22.2212C132.147 21.8381 132.003 21.5099 131.814 21.2363C131.625 20.9654 131.384 20.7543 131.089 20.6033C130.792 20.4548 130.449 20.3793 130.053 20.3793C129.549 20.3793 129.044 20.5589 128.543 20.9158C128.039 21.273 127.507 21.7965 126.954 22.4896V29.5791C126.954 29.6235 126.943 29.6627 126.922 29.699C126.901 29.7354 126.866 29.764 126.821 29.7874C126.768 29.8084 126.705 29.8266 126.621 29.8423C126.537 29.8552 126.432 29.8633 126.295 29.8633C126.173 29.8633 126.071 29.8552 125.987 29.8423C125.903 29.8266 125.836 29.8084 125.784 29.7874C125.731 29.764 125.7 29.7354 125.682 29.699C125.661 29.6627 125.651 29.6235 125.651 29.5791V19.6911C125.651 19.6471 125.661 19.608 125.682 19.5716C125.7 19.5349 125.731 19.5038 125.784 19.4776C125.836 19.4542 125.896 19.436 125.977 19.4231C126.05 19.4126 126.155 19.4074 126.278 19.4074C126.4 19.4074 126.502 19.4126 126.582 19.4231C126.663 19.436 126.726 19.4542 126.768 19.4776C126.814 19.5038 126.842 19.5349 126.863 19.5716C126.88 19.608 126.891 19.6471 126.891 19.6911V21.0905C127.458 20.4572 128.018 19.9963 128.565 19.7121C129.111 19.4283 129.654 19.2875 130.196 19.2875C130.844 19.2875 131.394 19.3969 131.835 19.6157C132.284 19.8348 132.641 20.1291 132.914 20.4988C133.191 20.8714 133.387 21.3041 133.509 21.7993C133.628 22.2942 133.688 22.8936 133.688 23.5919V29.5791Z" fill="#191919"/>
<path d="M138.602 29.5801C138.602 29.6246 138.588 29.6637 138.567 29.7C138.546 29.7366 138.51 29.7652 138.464 29.7885C138.419 29.8096 138.351 29.8276 138.267 29.8435C138.185 29.8565 138.076 29.8643 137.945 29.8643C137.818 29.8643 137.716 29.8565 137.631 29.8435C137.546 29.8276 137.479 29.8096 137.43 29.7885C137.377 29.7652 137.345 29.7366 137.327 29.7C137.306 29.6637 137.299 29.6246 137.299 29.5801V14.8538C137.299 14.8097 137.306 14.7678 137.327 14.7315C137.345 14.6952 137.377 14.6663 137.43 14.6402C137.479 14.6141 137.546 14.5961 137.631 14.5855C137.716 14.575 137.818 14.5672 137.945 14.5672C138.076 14.5672 138.185 14.575 138.267 14.5855C138.351 14.5961 138.419 14.6141 138.464 14.6402C138.51 14.6663 138.546 14.6952 138.567 14.7315C138.588 14.7678 138.602 14.8097 138.602 14.8538V29.5801Z" fill="#191919"/>
<path d="M149.634 24.6527C149.634 24.0924 149.58 23.5558 149.472 23.0452C149.36 22.5371 149.18 22.0862 148.923 21.698C148.671 21.3073 148.328 20.9973 147.895 20.7679C147.466 20.5385 146.928 20.424 146.286 20.424C145.694 20.424 145.185 20.5309 144.752 20.7416C144.323 20.953 143.969 21.2447 143.695 21.6199C143.424 21.9951 143.222 22.4381 143.089 22.9487C142.955 23.4568 142.89 24.0063 142.89 24.598C142.89 25.1659 142.948 25.7053 143.056 26.221C143.165 26.7345 143.349 27.1825 143.605 27.5682C143.861 27.9564 144.204 28.2614 144.633 28.4879C145.062 28.7122 145.6 28.8267 146.242 28.8267C146.834 28.8267 147.346 28.7198 147.772 28.5088C148.205 28.2977 148.555 28.006 148.83 27.6359C149.104 27.2635 149.306 26.8231 149.439 26.3125C149.569 25.8018 149.634 25.2494 149.634 24.6527ZM151.016 24.5328C151.016 25.3196 150.915 26.0438 150.709 26.7057C150.504 27.3676 150.201 27.9434 149.793 28.4331C149.389 28.9204 148.884 29.301 148.277 29.5743C147.671 29.848 146.971 29.9834 146.167 29.9834C145.394 29.9834 144.712 29.861 144.135 29.6186C143.554 29.3737 143.071 29.0248 142.681 28.5689C142.288 28.1126 141.995 27.5631 141.804 26.9142C141.609 26.2653 141.512 25.5332 141.512 24.7179C141.512 23.9311 141.613 23.2065 141.815 22.545C142.013 21.8803 142.317 21.3073 142.721 20.8226C143.125 20.3379 143.634 19.9627 144.24 19.6919C144.846 19.4236 145.553 19.2878 146.365 19.2878C147.137 19.2878 147.812 19.4078 148.393 19.6476C148.974 19.8899 149.457 20.2364 149.843 20.6923C150.23 21.1456 150.522 21.698 150.717 22.347C150.915 22.9955 151.016 23.7226 151.016 24.5328Z" fill="#191919"/>
<path d="M159.578 24.913H157.769C157.244 24.913 156.782 24.9628 156.39 25.0565C155.997 25.1503 155.671 25.2883 155.406 25.4706C155.142 25.653 154.948 25.8719 154.819 26.1275C154.695 26.3827 154.629 26.6745 154.629 27C154.629 27.5683 154.812 28.0216 155.172 28.3603C155.531 28.699 156.041 28.8685 156.698 28.8685C157.215 28.8685 157.699 28.7356 158.147 28.4697C158.595 28.2039 159.075 27.7949 159.578 27.2424V24.913ZM160.88 29.5795C160.88 29.6524 160.858 29.7099 160.807 29.7491C160.759 29.7879 160.7 29.8168 160.623 29.8347C160.546 29.853 160.44 29.8637 160.312 29.8637C160.187 29.8637 160.08 29.853 159.992 29.8347C159.908 29.8168 159.838 29.7879 159.791 29.7491C159.743 29.7099 159.717 29.6524 159.717 29.5795V28.4749C159.273 28.9567 158.785 29.3269 158.246 29.5902C157.71 29.8531 157.156 29.9834 156.577 29.9834C156.059 29.9834 155.594 29.9157 155.183 29.7802C154.768 29.6473 154.423 29.4543 154.137 29.2017C153.851 28.9516 153.634 28.647 153.48 28.29C153.326 27.933 153.249 27.5317 153.249 27.0886C153.249 26.5416 153.363 26.0675 153.587 25.6636C153.814 25.2597 154.137 24.921 154.552 24.6527C154.966 24.3817 155.469 24.1811 156.052 24.0456C156.635 23.9101 157.285 23.8424 158 23.8424H159.578V22.9904C159.578 22.5682 159.534 22.1954 159.446 21.8725C159.358 21.547 159.215 21.2757 159.02 21.0571C158.822 20.8381 158.569 20.6741 158.25 20.5672C157.938 20.4577 157.553 20.4032 157.101 20.4032C156.665 20.4032 156.269 20.4552 155.92 20.5591C155.571 20.6661 155.263 20.7836 154.999 20.9165C154.739 21.0465 154.522 21.1636 154.35 21.2706C154.177 21.3775 154.056 21.4295 153.983 21.4295C153.939 21.4295 153.899 21.4218 153.862 21.406C153.825 21.3932 153.796 21.3643 153.77 21.3255C153.741 21.2863 153.722 21.2343 153.715 21.1717C153.704 21.1091 153.697 21.0362 153.697 20.9476C153.697 20.7964 153.708 20.6741 153.733 20.5829C153.752 20.4918 153.81 20.4006 153.902 20.3094C153.99 20.2179 154.155 20.1113 154.386 19.9861C154.621 19.8638 154.889 19.7492 155.19 19.6423C155.494 19.538 155.821 19.4519 156.173 19.3867C156.522 19.3216 156.874 19.2879 157.222 19.2879C157.901 19.2879 158.477 19.3688 158.939 19.5328C159.409 19.6969 159.787 19.9316 160.073 20.2388C160.363 20.5438 160.568 20.9216 160.693 21.3698C160.818 21.8179 160.88 22.3258 160.88 22.8941V29.5795Z" fill="#191919"/>
<path d="M171.184 22.4446C170.638 21.7802 170.11 21.2748 169.602 20.9258C169.093 20.5765 168.566 20.4018 168.008 20.4018C167.507 20.4018 167.077 20.522 166.718 20.7616C166.359 21.0012 166.067 21.3189 165.839 21.7126C165.615 22.106 165.45 22.5491 165.349 23.044C165.245 23.539 165.196 24.0417 165.196 24.5523C165.196 25.0995 165.241 25.6314 165.327 26.1473C165.417 26.6657 165.562 27.1267 165.776 27.5305C165.989 27.9344 166.269 28.2576 166.617 28.5025C166.969 28.7473 167.406 28.8671 167.934 28.8671C168.195 28.8671 168.45 28.8309 168.7 28.7578C168.947 28.685 169.201 28.5652 169.463 28.3983C169.729 28.2315 169.998 28.0154 170.282 27.7496C170.563 27.4839 170.862 27.1528 171.184 26.7594V22.4446ZM172.485 29.5786C172.485 29.6282 172.478 29.6722 172.459 29.7088C172.44 29.7454 172.407 29.7741 172.362 29.7973C172.313 29.8182 172.253 29.8339 172.178 29.8469C172.107 29.8574 172.014 29.8626 171.905 29.8626C171.789 29.8626 171.692 29.8574 171.617 29.8469C171.539 29.8339 171.479 29.8182 171.43 29.7973C171.382 29.7741 171.348 29.7454 171.322 29.7088C171.296 29.6722 171.281 29.6282 171.281 29.5786V28.1587C170.757 28.7264 170.215 29.1721 169.65 29.4953C169.089 29.8208 168.476 29.9824 167.81 29.9824C167.096 29.9824 166.49 29.8443 165.985 29.5681C165.48 29.2893 165.072 28.9168 164.751 28.4428C164.433 27.9684 164.205 27.4133 164.059 26.7751C163.913 26.1394 163.838 25.462 163.838 24.7505C163.838 23.9115 163.928 23.156 164.111 22.4812C164.295 21.8089 164.564 21.2356 164.923 20.7616C165.278 20.2872 165.719 19.9251 166.247 19.6698C166.774 19.4145 167.38 19.2869 168.076 19.2869C168.674 19.2869 169.22 19.4198 169.718 19.6855C170.215 19.9513 170.701 20.3421 171.184 20.8605V14.9041C171.184 14.8627 171.191 14.8209 171.21 14.7843C171.228 14.7481 171.262 14.7194 171.315 14.6985C171.367 14.675 171.434 14.6567 171.516 14.6436C171.602 14.6283 171.703 14.6205 171.831 14.6205C171.962 14.6205 172.066 14.6283 172.152 14.6436C172.238 14.6567 172.302 14.675 172.35 14.6985C172.395 14.7194 172.429 14.7481 172.455 14.7843C172.474 14.8209 172.485 14.8627 172.485 14.9041V29.5786Z" fill="#191919"/>
<path d="M188.602 24.6519C188.602 24.0917 188.544 23.5549 188.436 23.0442C188.325 22.5362 188.144 22.0854 187.886 21.6973C187.632 21.3064 187.29 20.9961 186.859 20.7669C186.428 20.5377 185.893 20.4229 185.251 20.4229C184.658 20.4229 184.15 20.53 183.72 20.7408C183.289 20.952 182.935 21.2438 182.662 21.6189C182.388 21.9941 182.185 22.4372 182.054 22.9478C181.923 23.4558 181.858 24.0056 181.858 24.5969C181.858 25.1648 181.911 25.7043 182.023 26.2203C182.131 26.7333 182.315 27.1818 182.565 27.5673C182.823 27.9555 183.169 28.2603 183.596 28.4869C184.027 28.7111 184.566 28.8259 185.209 28.8259C185.797 28.8259 186.309 28.7188 186.74 28.508C187.171 28.2968 187.521 28.005 187.798 27.6349C188.067 27.2624 188.271 26.822 188.402 26.3114C188.536 25.8007 188.602 25.2485 188.602 24.6519ZM189.979 24.5317C189.979 25.3188 189.879 26.043 189.675 26.7049C189.467 27.3665 189.164 27.9424 188.76 28.4324C188.352 28.9196 187.848 29.3001 187.244 29.5735C186.636 29.8473 185.932 29.9824 185.132 29.9824C184.354 29.9824 183.681 29.8599 183.1 29.6177C182.519 29.3731 182.034 29.0237 181.642 28.5679C181.25 28.1118 180.961 27.5619 180.769 26.9134C180.572 26.2645 180.476 25.5323 180.476 24.7167C180.476 23.93 180.576 23.2058 180.78 22.5439C180.98 21.8793 181.284 21.3064 181.688 20.8214C182.092 20.3369 182.6 19.9617 183.204 19.6907C183.812 19.4227 184.516 19.2871 185.328 19.2871C186.101 19.2871 186.778 19.4069 187.359 19.6465C187.936 19.8888 188.421 20.2355 188.806 20.6913C189.194 21.1447 189.487 21.6973 189.683 22.3458C189.879 22.9947 189.979 23.7215 189.979 24.5317Z" fill="#191919"/>
<path d="M200.933 29.5802C200.933 29.6248 200.921 29.6638 200.902 29.7002C200.882 29.7365 200.843 29.7654 200.796 29.7889C200.749 29.8096 200.686 29.8279 200.6 29.8436C200.514 29.8564 200.412 29.8643 200.287 29.8643C200.158 29.8643 200.052 29.8564 199.966 29.8436C199.88 29.8279 199.817 29.8096 199.77 29.7889C199.723 29.7654 199.684 29.7365 199.665 29.7002C199.645 29.6638 199.633 29.6248 199.633 29.5802V23.7128C199.633 23.1006 199.582 22.6052 199.489 22.2224C199.395 21.8395 199.254 21.5109 199.062 21.2375C198.874 20.9663 198.631 20.7554 198.334 20.6042C198.036 20.4557 197.692 20.3803 197.3 20.3803C196.795 20.3803 196.294 20.5601 195.789 20.9171C195.284 21.2742 194.756 21.7977 194.204 22.4907V29.5802C194.204 29.6248 194.192 29.6638 194.169 29.7002C194.149 29.7365 194.11 29.7654 194.063 29.7889C194.016 29.8096 193.953 29.8279 193.867 29.8436C193.785 29.8564 193.675 29.8643 193.546 29.8643C193.421 29.8643 193.319 29.8564 193.233 29.8436C193.147 29.8279 193.084 29.8096 193.03 29.7889C192.979 29.7654 192.943 29.7365 192.928 29.7002C192.908 29.6638 192.9 29.6248 192.9 29.5802V19.6924C192.9 19.6482 192.908 19.6092 192.928 19.5724C192.943 19.5361 192.979 19.5049 193.03 19.4787C193.084 19.4552 193.147 19.4373 193.221 19.424C193.3 19.4134 193.398 19.4084 193.523 19.4084C193.648 19.4084 193.75 19.4134 193.828 19.424C193.91 19.4373 193.973 19.4552 194.016 19.4787C194.059 19.5049 194.09 19.5361 194.11 19.5724C194.126 19.6092 194.137 19.6482 194.137 19.6924V21.0918C194.705 20.4585 195.261 19.9975 195.809 19.7131C196.361 19.4295 196.901 19.2888 197.441 19.2888C198.091 19.2888 198.639 19.3982 199.085 19.617C199.528 19.8358 199.888 20.1303 200.162 20.5003C200.436 20.8726 200.632 21.3051 200.753 21.8004C200.874 22.2954 200.933 22.8947 200.933 23.5928V29.5802Z" fill="#191919"/>
<path d="M214.389 28.9884C214.389 29.1423 214.377 29.2672 214.349 29.3609C214.325 29.4547 214.285 29.5305 214.229 29.5851C214.173 29.6398 214.093 29.692 213.989 29.7391C213.881 29.7858 213.761 29.8249 213.621 29.8588C213.482 29.8899 213.338 29.9162 213.186 29.9342C213.03 29.9525 212.882 29.9629 212.738 29.9629C212.246 29.9629 211.831 29.8979 211.487 29.765C211.143 29.6346 210.863 29.4367 210.644 29.1711C210.424 28.905 210.268 28.5663 210.168 28.1598C210.072 27.7509 210.02 27.2715 210.02 26.7166V20.5674H208.545C208.441 20.5674 208.361 20.5207 208.301 20.4294C208.241 20.3384 208.213 20.2028 208.213 20.0205C208.213 19.9263 208.221 19.8434 208.233 19.7756C208.249 19.7054 208.273 19.6479 208.301 19.5984C208.333 19.5514 208.365 19.5175 208.405 19.4967C208.445 19.4732 208.493 19.4628 208.545 19.4628H210.02V17.0371C210.02 16.9928 210.028 16.9537 210.048 16.9174C210.064 16.8807 210.1 16.8496 210.152 16.8236C210.204 16.8001 210.272 16.7817 210.356 16.7686C210.44 16.7582 210.544 16.753 210.668 16.753C210.799 16.753 210.907 16.7582 210.991 16.7686C211.071 16.7817 211.139 16.8001 211.187 16.8236C211.235 16.8496 211.267 16.8807 211.291 16.9174C211.315 16.9537 211.323 16.9928 211.323 17.0371V19.4628H214.061C214.113 19.4628 214.157 19.4732 214.197 19.4967C214.237 19.5175 214.273 19.5514 214.301 19.5984C214.333 19.6479 214.353 19.7054 214.369 19.7756C214.381 19.8434 214.389 19.9263 214.389 20.0205C214.389 20.2028 214.357 20.3384 214.293 20.4294C214.233 20.5207 214.153 20.5674 214.061 20.5674H211.323V26.5418C211.323 27.2922 211.431 27.8654 211.647 28.2592C211.863 28.6497 212.254 28.8479 212.822 28.8479C212.998 28.8479 213.158 28.8296 213.302 28.7929C213.442 28.7566 213.565 28.7175 213.677 28.6732C213.785 28.6289 213.881 28.5899 213.957 28.5536C214.033 28.5169 214.097 28.4989 214.157 28.4989C214.197 28.4989 214.225 28.5065 214.257 28.5196C214.289 28.5352 214.309 28.5611 214.329 28.603C214.349 28.6421 214.361 28.694 214.373 28.7542C214.385 28.8164 214.389 28.8946 214.389 28.9884Z" fill="#191919"/>
<path d="M225.019 29.5795C225.019 29.6237 225.007 29.6626 224.986 29.6991C224.966 29.7356 224.93 29.7644 224.885 29.7875C224.836 29.8086 224.771 29.8268 224.686 29.8422C224.601 29.8556 224.499 29.8633 224.373 29.8633C224.243 29.8633 224.137 29.8556 224.052 29.8422C223.967 29.8268 223.902 29.8086 223.853 29.7875C223.808 29.7644 223.772 29.7356 223.751 29.6991C223.731 29.6626 223.715 29.6237 223.715 29.5795V23.7115C223.715 23.0993 223.67 22.6043 223.577 22.2212C223.479 21.8384 223.337 21.5101 223.146 21.2364C222.959 20.9656 222.716 20.7544 222.423 20.6031C222.123 20.4548 221.777 20.3794 221.383 20.3794C220.879 20.3794 220.38 20.559 219.876 20.9161C219.372 21.2729 218.84 21.7967 218.288 22.4896V29.5795C218.288 29.6237 218.276 29.6626 218.255 29.6991C218.235 29.7356 218.198 29.7644 218.15 29.7875C218.105 29.8086 218.04 29.8268 217.955 29.8422C217.869 29.8556 217.76 29.8633 217.63 29.8633C217.508 29.8633 217.402 29.8556 217.321 29.8422C217.236 29.8268 217.167 29.8086 217.118 29.7875C217.065 29.7644 217.028 29.7356 217.012 29.6991C216.992 29.6626 216.988 29.6237 216.988 29.5795V14.8527C216.988 14.8085 216.992 14.7668 217.012 14.7303C217.028 14.6942 217.065 14.6654 217.118 14.639C217.167 14.6131 217.236 14.5949 217.321 14.5843C217.402 14.5742 217.508 14.5661 217.63 14.5661C217.76 14.5661 217.869 14.5742 217.955 14.5843C218.04 14.5949 218.105 14.6131 218.15 14.639C218.198 14.6654 218.235 14.6942 218.255 14.7303C218.276 14.7668 218.288 14.8085 218.288 14.8527V21.0256C218.828 20.426 219.368 19.9885 219.909 19.7068C220.449 19.4282 220.989 19.2876 221.529 19.2876C222.179 19.2876 222.724 19.397 223.171 19.616C223.613 19.8349 223.975 20.1292 224.247 20.499C224.523 20.8715 224.718 21.3041 224.84 21.7991C224.958 22.2941 225.019 22.8933 225.019 23.5919V29.5795Z" fill="#191919"/>
<path d="M235.365 23.7456C235.386 22.6956 235.146 21.8775 234.642 21.2863C234.137 20.6975 233.405 20.4029 232.442 20.4029C231.946 20.4029 231.508 20.4941 231.132 20.6818C230.756 20.8667 230.441 21.1117 230.185 21.4191C229.92 21.724 229.722 22.0784 229.586 22.4819C229.445 22.8887 229.367 23.3079 229.346 23.7456H235.365ZM236.713 24.1289C236.713 24.3893 236.642 24.5691 236.502 24.6682C236.365 24.7672 236.229 24.8167 236.101 24.8167H229.346C229.346 25.429 229.404 25.9814 229.524 26.4765C229.644 26.9716 229.842 27.3961 230.119 27.7505C230.4 28.102 230.76 28.3731 231.206 28.5633C231.649 28.7535 232.198 28.8476 232.847 28.8476C233.306 28.8476 233.72 28.8084 234.083 28.7275C234.447 28.6466 234.766 28.5579 235.03 28.4589C235.299 28.3603 235.518 28.2716 235.687 28.1907C235.857 28.1128 235.981 28.0711 236.055 28.0711C236.101 28.0711 236.138 28.0814 236.175 28.1049C236.212 28.1256 236.241 28.1594 236.262 28.2089C236.283 28.2559 236.303 28.3158 236.312 28.3888C236.324 28.4618 236.328 28.553 236.328 28.6623C236.328 28.7118 236.328 28.7613 236.32 28.8084C236.312 28.8554 236.303 28.8996 236.291 28.9412C236.279 28.98 236.262 29.0192 236.241 29.0559C236.221 29.0922 236.192 29.1285 236.155 29.1653C236.117 29.2016 236.006 29.2643 235.816 29.3554C235.625 29.4466 235.377 29.5378 235.071 29.629C234.761 29.7202 234.406 29.801 234.001 29.8741C233.6 29.9467 233.162 29.9834 232.694 29.9834C231.926 29.9834 231.248 29.8687 230.656 29.6393C230.069 29.4099 229.569 29.0712 229.172 28.6231C228.767 28.1751 228.461 27.6202 228.255 26.9584C228.048 26.2941 227.944 25.5255 227.944 24.6525C227.944 23.8137 228.052 23.0632 228.267 22.4015C228.482 21.7397 228.788 21.1769 229.193 20.7128C229.594 20.2519 230.078 19.8975 230.644 19.6525C231.206 19.4103 231.835 19.2877 232.529 19.2877C233.273 19.2877 233.91 19.4103 234.435 19.6603C234.96 19.9078 235.39 20.2387 235.733 20.6583C236.072 21.0779 236.32 21.5652 236.477 22.1172C236.634 22.6696 236.713 23.2534 236.713 23.8657V24.1289Z" fill="#191919"/>
<path d="M121.706 57.4877C121.534 58.3059 121.257 59.0482 120.892 59.6945C120.536 60.3146 120.07 60.8227 119.511 61.2006C118.965 61.5705 118.32 61.7504 117.54 61.7504C116.684 61.7504 115.887 61.4765 115.096 60.9191C114.299 60.3562 113.446 59.5381 112.566 58.4881V51.3074C113.056 50.7056 113.526 50.1923 113.971 49.7779C114.444 49.3349 114.903 48.9701 115.334 48.6966C115.752 48.431 116.159 48.2408 116.546 48.1261C116.939 48.0141 117.343 47.9566 117.75 47.9566C118.558 47.9566 119.221 48.1364 119.735 48.4909C120.27 48.8609 120.702 49.3635 121.023 49.9839C121.364 50.6325 121.606 51.3908 121.751 52.2347C121.899 53.1025 121.975 54.0195 121.975 54.9575C121.975 55.7991 121.882 56.6513 121.706 57.4877ZM125.106 50.9216C124.844 49.752 124.409 48.7069 123.812 47.8212C123.208 46.917 122.41 46.1929 121.447 45.6717C120.484 45.148 119.311 44.8821 117.964 44.8821C117.343 44.8821 116.746 44.9527 116.19 45.0905C115.635 45.2287 115.079 45.4474 114.551 45.7392C114.036 46.0234 113.512 46.383 113.001 46.8078C112.797 46.9769 112.59 47.1595 112.373 47.3548V44.8821H109.159V71.0049H112.566V62.7821C112.718 62.9175 112.87 63.0425 113.018 63.1624C113.47 63.5272 113.936 63.8372 114.392 64.0846C114.865 64.3374 115.355 64.5252 115.849 64.6447C116.339 64.7649 116.867 64.8245 117.423 64.8245C118.71 64.8245 119.877 64.5744 120.885 64.0846C121.899 63.5923 122.759 62.8889 123.446 61.9898C124.122 61.1014 124.64 60.0149 124.989 58.7592C125.327 57.5243 125.496 56.1222 125.496 54.5931C125.496 53.3006 125.365 52.0656 125.106 50.9216Z" fill="#191919"/>
<path d="M142.215 57.4873C142.04 58.3057 141.768 59.0479 141.4 59.6942C141.045 60.3144 140.584 60.8224 140.022 61.2002C139.471 61.5701 138.827 61.75 138.051 61.75C137.196 61.75 136.398 61.4765 135.608 60.9188C134.806 60.3561 133.958 59.5378 133.078 58.4877V51.3069C133.565 50.7053 134.037 50.1919 134.477 49.7777C134.953 49.3346 135.414 48.9701 135.844 48.6963C136.259 48.4306 136.667 48.2403 137.056 48.1257C137.446 48.0136 137.854 47.9565 138.262 47.9565C139.067 47.9565 139.733 48.1361 140.244 48.4906C140.777 48.8605 141.21 49.3632 141.532 49.9834C141.872 50.6321 142.115 51.3905 142.262 52.2345C142.409 53.1021 142.484 54.0194 142.484 54.9573C142.484 55.7989 142.391 56.6511 142.215 57.4873ZM145.618 50.9213C145.353 49.7517 144.916 48.7066 144.323 47.8208C143.714 46.9168 142.92 46.1923 141.958 45.6714C140.992 45.1476 139.818 44.882 138.473 44.882C137.851 44.882 137.257 44.9523 136.699 45.0901C136.141 45.2283 135.59 45.4472 135.06 45.7389C134.545 46.0231 134.023 46.3826 133.511 46.8075C133.307 46.9767 133.096 47.1592 132.885 47.3545V44.882H129.665V71.0049H133.078V62.7819C133.229 62.9172 133.379 63.0422 133.525 63.1621C133.983 63.527 134.445 63.8369 134.903 64.0844C135.375 64.3371 135.862 64.5249 136.355 64.6446C136.845 64.7645 137.378 64.8245 137.933 64.8245C139.221 64.8245 140.387 64.5742 141.396 64.0844C142.408 63.592 143.271 62.8886 143.954 61.9896C144.634 61.1013 145.152 60.0148 145.496 58.7587C145.836 57.5241 146.008 56.122 146.008 54.5928C146.008 53.3003 145.879 52.0653 145.618 50.9213Z" fill="#191919"/>
<path d="M202.551 54.882C202.551 55.8799 202.441 56.8176 202.22 57.6671C202.011 58.4906 201.679 59.2098 201.241 59.8037C200.815 60.3794 200.258 60.8406 199.588 61.1714C198.909 61.5023 198.084 61.672 197.133 61.672C196.099 61.672 195.235 61.492 194.56 61.1403C193.889 60.7886 193.349 60.3066 192.954 59.7099C192.544 59.0924 192.248 58.3575 192.07 57.5265C191.889 56.664 191.794 55.7417 191.794 54.7855C191.794 53.7977 191.904 52.8679 192.121 52.0184C192.335 51.1949 192.666 50.4707 193.104 49.8716C193.53 49.288 194.087 48.8241 194.758 48.4956C195.436 48.1624 196.261 47.9954 197.212 47.9954C198.246 47.9954 199.11 48.1754 199.781 48.535C200.452 48.8918 200.992 49.379 201.387 49.9835C201.798 50.6089 202.097 51.3434 202.271 52.1696C202.456 53.0266 202.551 53.9387 202.551 54.882ZM203.901 47.55C203.163 46.6824 202.236 46.0129 201.135 45.5592C200.049 45.1087 198.775 44.8818 197.346 44.8818C195.847 44.8818 194.513 45.1374 193.38 45.6403C192.24 46.1484 191.273 46.8699 190.507 47.7843C189.754 48.6886 189.178 49.7752 188.803 51.0075C188.436 52.2216 188.25 53.5634 188.25 54.9966C188.25 56.4789 188.432 57.8341 188.787 59.0219C189.146 60.2333 189.702 61.2809 190.44 62.1383C191.178 63.0031 192.11 63.6754 193.207 64.1366C194.292 64.5926 195.57 64.8242 196.999 64.8242C198.483 64.8242 199.813 64.5639 200.949 64.0531C202.086 63.5399 203.052 62.8129 203.818 61.8906C204.572 60.9789 205.152 59.8923 205.531 58.66C205.905 57.4458 206.095 56.1036 206.095 54.6709C206.095 53.1987 205.913 51.8491 205.55 50.6609C205.179 49.4518 204.627 48.4046 203.901 47.55Z" fill="#191919"/>
<path d="M91.3245 54.403L95.2586 43.21L99.286 54.403H91.3245ZM97.4039 39.2834H93.3499L84.9053 64.7861H88.3631L90.2419 57.4775H100.399L102.347 64.7861H105.848L97.4039 39.2834Z" fill="#191919"/>
<path d="M172.701 54.444C172.338 53.6727 171.855 52.9902 171.252 52.4143C170.667 51.8489 169.997 51.3563 169.259 50.9422C168.552 50.5487 167.818 50.1735 167.088 49.8297C166.365 49.4911 165.646 49.1495 164.953 48.8135C164.29 48.4906 163.691 48.1255 163.171 47.7271C162.672 47.3493 162.276 46.909 161.976 46.4191C161.699 45.9579 161.557 45.3872 161.557 44.7253C161.557 44.272 161.639 43.837 161.796 43.4278C161.957 43.0268 162.186 42.6882 162.5 42.3884C162.815 42.0913 163.223 41.8492 163.717 41.672C164.215 41.4896 164.818 41.3985 165.507 41.3985C166.219 41.3985 166.859 41.4818 167.406 41.6511C167.975 41.8256 168.466 42.0237 168.87 42.2371C169.293 42.4587 169.645 42.662 169.919 42.8365L171.327 39.9002C171.162 39.7335 170.881 39.5485 170.439 39.319C170.038 39.1079 169.578 38.9151 169.068 38.7458C168.563 38.5765 168.024 38.4386 167.462 38.3317C166.893 38.2248 166.32 38.1676 165.758 38.1676C164.653 38.1676 163.62 38.3186 162.691 38.6183C161.74 38.9203 160.916 39.3688 160.231 39.9443C159.542 40.528 158.999 41.2471 158.621 42.0809C158.243 42.9147 158.052 43.8632 158.052 44.8999C158.052 45.9631 158.239 46.9038 158.602 47.6905C158.965 48.4671 159.448 49.1525 160.044 49.7306C160.62 50.2935 161.283 50.7913 162.013 51.208C162.714 51.612 163.448 51.992 164.182 52.3362C164.901 52.6722 165.616 53.0138 166.301 53.3524C166.96 53.6727 167.556 54.0348 168.069 54.4283C168.559 54.8009 168.956 55.2386 169.252 55.7259C169.533 56.1871 169.671 56.7578 169.671 57.4196C169.671 58.0815 169.555 58.6727 169.327 59.181C169.098 59.6863 168.776 60.1138 168.368 60.455C167.949 60.8041 167.443 61.0776 166.859 61.2652C166.264 61.4581 165.593 61.5571 164.871 61.5571C163.968 61.5571 163.171 61.4529 162.504 61.2443C161.811 61.0309 161.212 60.7962 160.721 60.5488C160.223 60.2984 159.819 60.0641 159.512 59.8556L158.812 63.3783C159.212 63.6025 159.707 63.8238 160.283 64.0375C160.86 64.2539 161.523 64.4389 162.253 64.5899C162.995 64.7461 163.792 64.8242 164.62 64.8242C165.844 64.8242 166.99 64.6523 168.031 64.3163C169.087 63.9751 170.012 63.4695 170.784 62.8155C171.562 62.1562 172.177 61.3434 172.607 60.4001C173.034 59.4598 173.255 58.3861 173.255 57.2085C173.255 56.1561 173.068 55.2255 172.701 54.444Z" fill="#191919"/>
<path d="M184.457 61.4425C184.289 61.51 184.087 61.5725 183.862 61.6324C183.659 61.6846 183.422 61.7109 183.163 61.7109C182.112 61.7109 181.757 61.2836 181.581 60.9603C181.249 60.3558 181.081 59.4283 181.081 58.2089V48.2428H185.225V45.1891H181.081V41.4764L177.67 42.9744V45.1891H175.822V48.2428H177.67V58.5166C177.67 59.5297 177.766 60.4286 177.949 61.1845C178.14 61.9815 178.461 62.6566 178.896 63.188C179.343 63.73 179.92 64.1364 180.611 64.4021C181.276 64.6552 182.082 64.7852 183.01 64.7852C183.285 64.7852 183.575 64.7669 183.865 64.7333C184.152 64.6994 184.434 64.6498 184.698 64.5873C184.977 64.5221 185.225 64.4387 185.443 64.3422L184.92 61.2443C184.797 61.3042 184.641 61.3693 184.457 61.4425Z" fill="#191919"/>
<path d="M217.858 44.8824C217.81 44.8824 217.762 44.8824 217.714 44.8824C217.287 44.8824 216.865 44.9322 216.455 45.0337C216.033 45.1377 215.594 45.3331 215.156 45.6173C214.738 45.8882 214.295 46.2711 213.841 46.7479C213.704 46.894 213.563 47.0554 213.418 47.23V44.8824H210.125V64.7861H213.531V51.9432C213.978 51.2372 214.392 50.6304 214.758 50.1379C215.144 49.6298 215.506 49.2208 215.844 48.9209C216.165 48.6344 216.467 48.4261 216.744 48.3036C217.014 48.1864 217.271 48.129 217.541 48.129C217.621 48.129 217.706 48.1315 217.802 48.1395L218.401 48.1836V44.8981L217.858 44.8824Z" fill="#191919"/>
<path d="M224.692 51.2446C224.916 50.6008 225.234 50.0302 225.644 49.5483C226.045 49.0689 226.55 48.6807 227.142 48.3888C227.721 48.1022 228.416 47.9565 229.198 47.9565C230.737 47.9565 231.862 48.402 232.648 49.3191C233.352 50.1425 233.733 51.2887 233.782 52.7294H224.353C224.415 52.219 224.531 51.7215 224.692 51.2446ZM234.924 60.5018C234.845 60.5332 234.763 60.567 234.676 60.6087C234.386 60.7417 234.014 60.8953 233.563 61.0621C233.12 61.226 232.582 61.3776 231.966 61.513C231.366 61.6431 230.675 61.7108 229.909 61.7108C228.846 61.7108 227.948 61.5572 227.237 61.255C226.546 60.9605 225.979 60.5356 225.549 59.9914C225.114 59.4336 224.796 58.751 224.601 57.9615C224.44 57.2893 224.341 56.539 224.312 55.726H235.632C235.983 55.726 236.331 55.6033 236.67 55.3638C237.067 55.0798 237.27 54.6082 237.27 53.957V53.4958C237.27 52.3727 237.125 51.2863 236.836 50.2676C236.538 49.2254 236.062 48.2951 235.421 47.5002C234.775 46.7033 233.939 46.0595 232.942 45.588C231.945 45.1189 230.737 44.8819 229.351 44.8819C228.06 44.8819 226.864 45.114 225.805 45.5723C224.738 46.031 223.811 46.7082 223.054 47.5836C222.301 48.4512 221.717 49.5144 221.312 50.747C220.919 51.9635 220.716 53.355 220.716 54.882C220.716 56.4684 220.911 57.8913 221.291 59.1053C221.68 60.3428 222.264 61.3982 223.017 62.2422C223.782 63.0945 224.738 63.7457 225.855 64.1809C226.955 64.6083 228.23 64.8242 229.641 64.8242C230.493 64.8242 231.3 64.7569 232.044 64.624C232.773 64.491 233.426 64.3399 233.981 64.1755C234.337 64.069 234.651 63.9645 234.924 63.858V60.5018Z" fill="#191919"/>
</svg>
