<svg width="675" height="675" viewBox="0 0 675 675" fill="none" xmlns="http://www.w3.org/2000/svg">
<path d="M309.421 0.78513C196.617 10.5922 97.1643 75.2919 42.1249 174.861C-2.42437 255.361 -11.8247 354.249 16.6487 444.148C33.1333 495.907 60.7892 540.857 100.979 580.903C140.76 620.404 187.625 647.917 241.983 663.718C257.651 668.213 282.582 673.934 286.669 674.07C287.895 674.07 288.304 648.872 288.304 552.843V431.616H250.157H212.012V383.943V336.27H250.022H288.031L288.712 288.188C289.394 236.02 290.348 227.438 298.385 206.189C312.417 169.14 342.934 144.486 386.666 135.088C401.788 131.819 444.431 131.819 472.222 135.224C483.121 136.451 493.339 137.948 495.111 138.357L498.107 139.038V180.31V221.581L461.051 222.126C427.673 222.671 422.905 223.079 415.004 225.668C400.154 230.571 390.754 240.786 385.848 257.132C384.078 263.125 383.669 271.433 383.669 300.447V336.27H433.395C482.713 336.27 483.121 336.27 483.121 339.131C483.121 340.629 480.124 361.468 476.31 385.305C472.631 409.142 469.498 429.437 469.498 430.119C469.498 431.208 458.736 431.616 436.12 431.616H402.742V552.843C402.742 652.822 403.015 674.07 404.513 674.07C405.604 674.07 414.049 672.027 423.45 669.438C477.264 654.592 527.807 625.715 568.814 586.215C626.578 530.641 660.774 463.218 672.081 382.581C675.487 357.383 675.214 314.476 671.264 288.869C660.092 215.179 627.94 151.433 575.762 99.1286C519.905 43.1463 453.694 11.0009 375.495 2.01103C359.01 0.104102 324.679 -0.576966 309.421 0.78513Z" fill="#F1F1F1"/>
</svg>
