<svg width="846" height="1150" viewBox="0 0 846 1150" fill="none" xmlns="http://www.w3.org/2000/svg">
<path d="M422.867 115.329C423.843 115.328 424.802 115.588 425.644 116.081C427.316 117.061 427.894 118.995 428.388 120.868C469.785 277.936 730.417 570.594 730.417 726.957C730.417 896.809 592.725 1034.5 422.873 1034.5C253.021 1034.5 115.329 896.809 115.329 726.957C115.329 570.599 375.946 277.952 417.354 120.881C417.848 119.008 418.422 117.071 420.091 116.087C420.932 115.592 421.891 115.33 422.867 115.329Z" fill="#FFF7E2"/>
<path d="M730.417 726.957C730.417 570.594 469.785 277.936 428.388 120.868C427.894 118.995 427.315 117.061 425.644 116.081C424.802 115.588 423.843 115.328 422.867 115.329C421.891 115.33 420.932 115.592 420.091 116.087C418.422 117.071 417.848 119.008 417.354 120.881C375.946 277.952 115.329 570.599 115.329 726.957C115.329 896.809 253.021 1034.5 422.873 1034.5C592.725 1034.5 730.417 896.809 730.417 726.957ZM845.746 726.957C845.746 960.503 656.419 1149.83 422.873 1149.83C189.327 1149.83 0 960.503 0 726.957C0 660.582 26.2204 593.3 52.8651 538.186C80.9225 480.149 117.761 419.373 153.061 362.988C189.688 304.482 224.011 251.665 253.026 201.829C282.796 150.697 299.767 114.503 305.836 91.4816L305.997 90.8449C306.669 88.2446 309.427 78.1588 314.793 67.2505C321.781 53.0426 335.672 31.9646 361.557 16.7168L361.559 16.716C380.105 5.79187 401.227 0.0240194 422.739 7.2295e-05H422.741C443.93 -0.0231054 464.738 5.52718 483.085 16.0748L483.957 16.5809L485.163 17.2964C510.29 32.4142 523.917 53.0148 530.849 67.0418C536.264 77.9993 539.039 88.1084 539.735 90.7969L539.909 91.4756L540.201 92.5643C546.508 115.627 563.408 151.484 592.712 201.818C621.727 251.654 656.05 304.472 692.679 362.979C727.98 419.366 764.819 480.142 792.878 538.18C819.524 593.296 845.746 660.58 845.746 726.957Z" fill="#083D77"/>
</svg>
