<svg width="839" height="1141" viewBox="0 0 839 1141" fill="none" xmlns="http://www.w3.org/2000/svg">
<path d="M419.437 114.393C420.405 114.392 421.356 114.649 422.191 115.139C423.849 116.11 424.423 118.029 424.912 119.887C465.974 275.681 724.492 565.964 724.492 721.059C724.492 889.533 587.916 1026.11 419.443 1026.11C250.969 1026.11 114.394 889.533 114.394 721.059C114.394 565.969 372.896 275.696 413.969 119.9C414.459 118.041 415.028 116.12 416.683 115.145C417.518 114.653 418.468 114.394 419.437 114.393Z" fill="#083D77"/>
<path d="M724.491 721.06C724.491 565.965 465.974 275.681 424.913 119.887C424.423 118.03 423.849 116.111 422.191 115.14C421.356 114.65 420.405 114.392 419.436 114.393C418.468 114.395 417.517 114.654 416.683 115.146C415.027 116.121 414.458 118.042 413.968 119.9C372.896 275.697 114.393 565.97 114.393 721.06C114.393 889.533 250.968 1026.11 419.442 1026.11C587.916 1026.11 724.491 889.533 724.491 721.06ZM838.885 721.06C838.885 952.711 651.094 1140.5 419.442 1140.5C187.791 1140.5 0 952.711 0 721.06C0 655.223 26.0077 588.487 52.4362 533.819C80.266 476.253 116.806 415.971 151.819 360.043C188.15 302.012 222.193 249.624 250.974 200.191C280.502 149.475 297.335 113.574 303.355 90.7395L303.515 90.1079C304.181 87.5287 306.917 77.5247 312.239 66.705C319.17 52.6123 332.948 31.7053 358.624 16.5812L358.625 16.5804C377.021 5.74489 397.972 0.0238245 419.309 7.17085e-05H419.311C440.329 -0.022918 460.968 5.48234 479.166 15.9444L480.031 16.4464L481.227 17.1561C506.15 32.1512 519.666 52.5847 526.542 66.4979C531.914 77.3665 534.666 87.3936 535.356 90.0603L535.529 90.7335L535.818 91.8134C542.074 114.689 558.837 150.255 587.904 200.18C616.683 249.612 650.728 302.002 687.06 360.035C722.074 415.963 758.615 476.247 786.445 533.814C812.875 588.483 838.885 655.221 838.885 721.06Z" fill="#FFF7E2"/>
</svg>
