<svg width="665" height="665" viewBox="0 0 665 665" fill="none" xmlns="http://www.w3.org/2000/svg">
<path d="M208.375 0.777792C165.463 2.59503 136.075 8.04675 111.237 18.6905C87.961 28.6854 74.1771 37.9014 57.0123 54.9055C33.8657 77.8806 19.4316 103.712 10.3291 138.369C2.2668 169.002 0.446289 204.179 0.446289 331.775C0.446289 457.295 2.13676 492.86 9.6789 523.494C28.4042 599.687 84.3199 648.234 166.634 659.527C190.169 662.642 239.584 664.07 333.991 664.07C421.765 664.07 472.35 662.772 495.106 660.046C541.659 654.594 578.069 638.499 606.807 610.98C639.187 579.828 656.351 542.575 662.593 489.485C665.064 468.717 665.064 191.718 662.593 172.117C657.522 132.398 645.688 99.6873 626.963 74.6356C617.731 62.1745 597.965 43.3531 585.612 34.9159C557.653 16.0946 523.974 5.7103 479.631 1.94601C458.696 0.258581 243.875 -0.650039 208.375 0.777792ZM489.644 63.4725C526.705 68.9242 547.511 78.1402 567.536 98.0002C580.54 110.98 587.692 122.403 594.064 140.056C604.727 169.911 605.767 185.746 605.767 332.424C605.767 416.926 605.246 457.553 604.077 471.183C600.306 516.225 591.333 540.497 570.267 562.954C548.291 586.318 520.853 597.871 478.331 601.765C455.314 603.971 265.071 605.01 221.249 603.192C201.483 602.413 180.807 601.116 175.216 600.337C150.639 596.962 126.842 588.265 112.018 577.491C102.785 570.612 87.961 554.516 82.4994 545.43C71.5763 527.258 65.0745 501.687 62.864 469.236C58.9628 410.306 60.2631 208.073 64.6844 174.584C69.3658 139.927 80.1588 116.562 100.574 96.8318C122.94 75.1547 152.329 64.6407 197.842 61.7851C207.724 61.2659 274.173 60.8765 345.694 61.1361C456.615 61.3957 477.811 61.6553 489.644 63.4725Z" fill="#F1F1F1"/>
<path d="M493.546 118.898C478.852 126.297 471.83 137.72 471.83 154.594C471.83 166.796 474.691 174.064 483.013 182.372C491.335 190.55 498.618 193.534 510.841 193.534C519.553 193.534 522.414 193.016 528.656 189.9C541.789 183.41 549.202 172.117 550.242 157.06C551.153 143.69 548.162 135.902 538.929 126.556C530.346 117.989 522.805 115.004 510.191 115.004C503.169 115.004 500.048 115.783 493.546 118.898Z" fill="#F1F1F1"/>
<path d="M302.912 163.81C268.713 170.041 238.415 186.006 212.927 211.578C179.117 245.196 162.863 284.527 162.863 331.774C162.863 360.332 168.195 383.826 180.028 407.45C216.438 479.62 296.541 516.614 374.432 497.273C405.122 489.615 428.788 476.375 451.805 454.179C472.48 434.189 486.394 412.382 495.106 386.292C501.349 367.471 503.689 352.933 503.689 331.774C503.689 310.746 501.349 296.079 495.237 277.647C486.915 252.725 474.821 232.995 455.965 213.525C430.218 187.045 398.099 169.911 362.729 163.681C348.295 161.214 316.956 161.214 302.912 163.81ZM354.407 223.26C413.964 234.682 453.495 293.094 442.052 352.933C435.03 389.148 408.372 421.338 374.302 434.449C357.658 440.939 348.035 442.497 328.79 441.718C315.136 441.198 309.804 440.419 300.832 437.564C261.431 425.103 232.693 393.301 224.63 353.322C221.509 337.876 222.68 313.862 227.361 299.324C239.584 260.643 272.224 231.178 311.105 223.389C322.678 221.053 342.704 221.053 354.407 223.26Z" fill="#F1F1F1"/>
</svg>
