<svg width="641" height="641" viewBox="0 0 641 641" fill="none" xmlns="http://www.w3.org/2000/svg">
<path d="M71.8615 0.970812C36.9429 6.85594 6.90538 37.5337 1.52367 72.9697C0.647572 78.8548 0.272103 158.993 0.522415 325.78L0.897884 569.95L4.40226 579.967C14.2896 607.89 33.063 626.672 60.9729 636.564L70.9854 640.07H570.359L580.371 636.564C609.282 626.297 629.182 605.511 638.193 576.21C640.321 569.073 640.446 557.679 640.446 319.519V70.3402L636.942 60.3229C627.055 32.3999 608.281 13.6176 580.371 3.72555L570.359 0.219519L324.427 0.094304C185.628 -0.0309114 75.6162 0.344735 71.8615 0.970812ZM189.884 121.678C205.779 125.936 218.67 136.704 225.929 151.981C230.935 162.749 232.061 177.9 228.682 189.42C221.924 212.71 200.772 228.738 177.118 228.738C155.341 228.738 136.192 216.842 127.306 197.809C107.656 156.363 145.579 110.159 189.884 121.678ZM435.44 248.897C479.12 253.781 505.278 278.824 514.539 324.653C518.794 345.689 519.671 364.596 519.671 439.6V511.975L511.16 520.49H476.867C445.077 520.49 442.449 520.364 438.694 517.985C436.442 516.608 434.314 514.229 433.938 512.726C433.688 511.098 433.188 476.915 432.937 436.595C432.562 371.984 432.311 362.468 430.434 355.831C427.055 344.061 422.424 335.672 416.291 330.287C408.782 323.651 401.523 321.397 388.256 321.397C378.619 321.397 376.492 321.898 369.733 325.154C360.597 329.786 354.089 336.673 349.333 346.941C341.448 363.97 341.573 362.843 340.822 441.854L340.071 514.104L337.193 516.984C334.439 519.863 333.813 519.864 300.647 520.239C263.601 520.615 261.098 520.239 258.219 513.352C257.218 510.723 256.842 477.165 257.093 384.255L257.468 258.539L264.477 252.529H298.895C320.046 252.529 334.314 253.029 335.691 253.781C339.821 256.035 341.198 260.167 341.949 272.313L342.574 283.958L347.456 277.697C364.352 255.409 397.393 244.64 435.44 248.897ZM214.289 256.035C216.667 258.414 218.044 261.419 218.67 265.175C219.045 268.181 219.296 324.778 219.045 390.892C218.67 504.212 218.545 511.349 216.417 514.354C212.412 520.239 209.659 520.615 174.49 520.239L141.699 519.863L138.319 516.357L134.815 512.977L134.44 388.638C134.314 320.395 134.44 263.047 134.815 261.544C135.191 259.916 137.068 257.162 138.82 255.534L142.074 252.529H210.785L214.289 256.035Z" fill="#F1F1F1"/>
</svg>
