<svg width="4216" height="756" viewBox="0 0 4216 756" fill="none" xmlns="http://www.w3.org/2000/svg">
<path d="M1363.43 225.776C1323.9 198.836 1274.58 179.946 1215.81 179.946C1142 179.946 1089.18 213.176 1089.18 268.447C1089.18 313.926 1125.91 338.756 1202.17 347.856L1248.7 353.456C1329.51 363.246 1401.57 397.536 1401.57 482.186C1401.57 579.086 1313.42 629.457 1207.77 629.457C1136.76 629.457 1061.55 604.266 1015.37 566.486L1046.15 521.707C1080.08 550.387 1143.75 576.277 1207.41 576.277C1283.32 576.277 1343.14 545.496 1343.14 487.076C1343.14 439.506 1302.21 415.716 1224.55 406.966L1175.23 401.366C1091.62 391.916 1030.76 353.096 1030.76 271.936C1030.76 178.886 1113.67 126.766 1216.16 126.766C1290.67 126.766 1346.99 148.806 1392.12 180.286L1363.44 225.766L1363.43 225.776Z" fill="#083D77"/>
<path d="M1971.13 377.946C1971.13 524.866 1864.09 629.816 1718.22 629.816C1572.35 629.816 1465.31 524.876 1465.31 377.946C1465.31 231.016 1572.7 126.076 1718.22 126.076C1863.74 126.076 1971.13 231.016 1971.13 377.946ZM1524.42 377.946C1524.42 495.836 1608.38 575.586 1718.22 575.586C1828.06 575.586 1912.37 495.826 1912.37 377.946C1912.37 260.066 1828.41 180.306 1718.22 180.306C1608.03 180.306 1524.42 260.066 1524.42 377.946Z" fill="#083D77"/>
<path d="M2573.1 622.816H2516.78V196.046L2346.07 568.596H2286.95L2116.59 198.846V622.816H2060.27V133.076H2145.62L2316.68 503.176L2487.39 133.076H2573.09V622.816H2573.1Z" fill="#083D77"/>
<path d="M3113.92 622.816H3053.75L2998.13 486.386H2755.71L2700.44 622.816H2642.02L2843.16 133.076H2912.77L3113.91 622.816H3113.92ZM2777.4 433.216H2976.79L2877.09 188.696L2777.39 433.216H2777.4Z" fill="#083D77"/>
<path d="M3543.98 176.456L3244.89 569.646H3545.03V622.816H3170.03V579.436L3469.47 186.246H3173.53V133.076H3543.98V176.456Z" fill="#083D77"/>
<path d="M4081.15 377.946C4081.15 524.866 3974.11 629.816 3828.24 629.816C3682.37 629.816 3575.33 524.876 3575.33 377.946C3575.33 231.016 3682.72 126.076 3828.24 126.076C3973.76 126.076 4081.15 231.016 4081.15 377.946ZM3634.44 377.946C3634.44 495.836 3718.4 575.586 3828.24 575.586C3938.08 575.586 4022.39 495.826 4022.39 377.946C4022.39 260.066 3938.43 180.306 3828.24 180.306C3718.05 180.306 3634.44 260.066 3634.44 377.946Z" fill="#083D77"/>
<path d="M4215.71 622.816H4159.39V133.076H4215.71V622.816Z" fill="#083D77"/>
<path d="M412.505 169.466C422.435 168.276 432.845 169.186 442.205 172.646C447.325 174.546 460.965 181.096 459.045 187.836C457.005 194.986 439.605 187.996 433.795 187.536C421.005 186.526 399.905 189.456 392.405 201.196C388.685 207.026 387.085 217.996 385.905 224.936C384.585 232.696 384.605 247.166 382.245 253.686C381.155 256.706 377.775 258.596 374.625 257.556C371.875 256.726 371.065 252.116 370.745 249.506C366.885 217.446 373.745 174.116 412.505 169.466Z" fill="#083D77"/>
<path d="M441.605 216.906C451.975 213.776 455.575 224.946 445.505 232.706C436.495 239.646 423.925 241.276 412.945 238.636C407.105 237.226 394.565 229.276 398.145 222.096C400.955 216.466 407.495 222.476 410.785 223.516C417.605 225.676 423.805 225.406 430.625 223.236C434.805 221.906 439.415 217.566 441.605 216.906Z" fill="#083D77"/>
<path d="M283.095 216.906C272.725 213.776 269.125 224.946 279.195 232.706C288.205 239.646 300.775 241.276 311.755 238.636C317.595 237.226 330.135 229.276 326.555 222.096C323.745 216.466 317.205 222.476 313.915 223.516C307.095 225.676 300.895 225.406 294.075 223.236C289.895 221.906 285.285 217.566 283.095 216.906Z" fill="#083D77"/>
<path d="M361.965 315.756V329.566C375.195 329.336 389.395 327.276 399.585 321.116C401.455 319.996 402.375 317.646 401.555 315.616C399.685 311.046 391.525 314.186 386.255 313.936C382.745 313.776 378.455 313.156 375.335 313.276C368.715 313.526 366.155 315.976 361.975 315.756H361.965Z" fill="#083D77"/>
<path d="M361.965 315.756V329.566C348.735 329.336 334.535 327.276 324.345 321.116C322.475 319.996 321.555 317.646 322.375 315.616C324.245 311.046 332.405 314.186 337.675 313.936C341.185 313.776 345.475 313.156 348.595 313.276C355.215 313.526 357.775 315.976 361.955 315.756H361.965Z" fill="#083D77"/>
<path d="M704.085 480.197V480.167C700.125 463.947 696.785 453.667 685.485 440.276C676.425 429.556 662.925 421.726 655.555 409.706C631.555 370.546 666.595 326.026 637.215 277.917C613.715 239.426 571.215 238.836 553.125 193.506C539.275 158.786 537.365 127.736 517.295 93.2465C451.935 -19.0635 286.855 -36.3635 213.975 76.8065C204.705 91.2065 197.645 107.396 186.465 120.576C152.495 160.646 99.4952 160.866 78.9552 218.296C70.2552 242.626 75.7652 261.266 73.5652 285.276C70.5652 317.926 42.2652 326.417 23.9252 347.966C6.42523 368.556 -0.594772 393.376 1.17523 420.346C2.78523 444.786 15.7852 469.936 6.08523 494.276C-4.14477 520.036 -1.42477 549.236 13.8552 572.356C86.9252 682.856 212.295 755.736 354.685 755.736C486.215 755.736 603.215 693.556 677.895 596.976C700.925 567.196 711.455 529.406 706.345 492.106C705.765 487.896 705.025 483.897 704.095 480.197H704.085ZM614.915 294.826C628.285 317.806 625.115 340.846 620.125 365.746L612.755 344.507C596.945 305.517 553.875 283.616 548.855 239.376C568.495 260.806 599.725 268.746 614.915 294.826ZM524.545 227.486C528.625 245.146 528.555 263.376 535.355 280.406C549.295 315.266 586.035 333.486 593.705 371.106C599.435 399.246 588.765 424.686 590.985 452.676C592.055 466.236 597.235 479.906 602.845 492.116C602.145 492.816 589.835 486.036 587.695 485.137C581.305 482.466 571.485 481.227 568.535 475.137C556.925 451.237 566.735 427.366 570.155 403.806C579.405 340.376 523.705 324.517 504.845 273.137C495.365 247.337 502.085 231.076 500.115 205.496C499.225 194.106 496.105 182.846 491.625 172.416C508.855 186.276 519.635 206.086 524.565 227.496L524.545 227.486ZM126.025 492.176C121.325 494.946 116.535 497.727 112.135 500.966C105.555 505.786 100.195 511.636 94.1152 516.436C93.0352 517.286 92.7352 518.526 90.8652 518.036C96.9852 498.776 92.7152 478.066 94.2452 458.246C101.315 367.366 203.645 381.447 225.085 300.697L229.105 284.757C236.885 306.477 238.965 325.936 228.215 347.036C209.765 383.297 170.645 391.236 145.975 420.336C129.525 439.746 120.345 466.966 126.015 492.186L126.025 492.176ZM170.355 438.206C184.585 420.116 206.055 412.226 223.635 398.606C240.595 385.476 254.045 367.947 257.745 346.316C268.875 357.626 268.045 373.926 265.365 388.486C257.795 429.586 215.225 450.876 180.915 467.126C178.315 468.357 156.615 479.086 155.685 478.076C156.945 463.806 161.435 449.556 170.355 438.206ZM335.535 283.646C342.095 300.396 373.205 304.136 382.995 288.986C384.995 285.896 384.435 281.756 380.665 280.606C375.365 278.986 351.465 287.667 348.175 276.417C346.305 270.047 350.845 249.306 351.235 241.036C352.535 213.576 350.345 182.956 320.605 172.196C309.495 168.176 304.315 169.766 293.435 170.286C292.245 170.336 290.415 170.876 290.715 169.176C323.045 152.986 354.435 128.276 371.175 95.7265C379.625 107.236 389.015 118.336 400.985 126.406C432.305 147.526 457.855 141.036 469.705 186.216C486.425 249.926 449.155 345.387 390.415 377.406C331.195 409.676 269.465 327.646 256.685 277.176C251.825 257.996 247.195 220.916 255.965 202.986C262.685 189.216 286.235 186.306 299.935 187.476C309.085 188.266 321.825 193.036 328.145 199.786C338.715 211.096 338.045 239.096 337.155 253.936C336.615 262.906 332.285 275.267 335.555 283.637L335.535 283.646ZM538.035 468.356L508.915 458.576C514.815 439.106 520.475 421.836 514.835 401.366C510.685 386.346 498.405 374.536 491.405 361.066C481.565 342.116 481.265 325.006 487.245 304.676C487.695 303.106 486.615 302.786 489.415 303.096C499.545 333.137 538.515 352.986 541.265 385.746C542.515 400.686 536.625 414.736 534.935 429.056C533.415 441.846 534.145 456.066 538.035 468.356ZM481.865 442.426C457.845 421.576 452.355 386.026 458.135 356.036L467.275 376.576C481.395 397.296 494.345 416.926 481.865 442.426ZM297.185 377.637C310.935 389.566 325.735 401.536 343.855 406.016C375.635 413.886 403.645 399.376 425.705 377.637V406.257C425.705 424.867 442.165 452.496 457.015 463.516L476.375 477.426C447.095 515.596 408.555 545.396 368.465 571.496L366.675 571.246C326.655 543.856 286.675 515.746 251.835 481.856C284.765 456.866 300.235 418.786 297.185 377.637ZM437.025 560.136C461.785 539.046 486.015 516.576 503.615 488.966L546.685 502.926C538.495 527.526 523.045 551.256 506.195 570.976C491.195 588.526 464.255 612.516 443.715 622.996C441.865 623.936 438.345 626.466 436.535 625.566L395.475 590.926L437.025 560.136ZM248.605 79.0065C289.095 29.4065 365.245 20.2365 422.115 44.7665C469.175 65.0665 496.805 109.536 513.195 156.196L500.745 145.446C469.765 114.266 405.485 112.286 387.385 68.6965C382.765 57.5965 385.475 46.6765 369.055 49.3365C361.485 50.5665 357.525 62.2765 352.815 67.6465C338.185 84.3365 309.195 86.2365 288.785 92.1965C262.655 99.8265 237.465 112.476 217.775 131.366C228.265 114.556 235.995 94.4465 248.595 79.0165L248.605 79.0065ZM98.9852 297.706C104.525 275.476 96.7652 254.316 104.145 231.586C114.275 200.386 149.475 182.136 177.285 169.176C155.995 192.186 153.775 221.716 145.175 249.926C136.395 278.646 119.615 295.566 94.1252 310.667C95.4052 306.197 97.8452 302.276 98.9852 297.706ZM66.0252 496.966C64.5252 518.727 55.8852 540.167 40.6452 555.826L39.6152 554.046C30.2152 537.796 28.2052 518.477 33.2752 500.396C36.5952 488.566 36.5752 475.336 35.7852 463.507C34.9952 451.836 31.1252 439.477 30.4052 427.846C25.8152 353.316 101.195 351.836 143.825 311.216C175.385 281.137 170.155 251.106 185.735 214.886C202.055 176.956 237.245 142.316 275.195 126.116C292.535 118.716 311.545 115.846 328.485 107.606L318.795 117.876C275.735 149.196 228.725 164.386 209.675 219.376C193.725 265.416 214.875 299.676 166.825 334.236C129.675 360.956 91.5052 368.056 73.5852 417.036C62.2952 447.906 68.0952 466.947 66.0352 496.977L66.0252 496.966ZM117.365 641.146C104.905 630.866 92.3652 619.626 82.3152 607.216C91.5652 570.306 110.695 538.336 143.885 518.666C149.205 515.516 161.375 508.766 166.805 506.996C167.775 506.676 168.655 505.616 169.765 506.616C183.065 538.506 200.015 570.326 221.585 597.406C258.415 643.626 314.005 673.376 342.525 726.496C260.195 724.586 180.445 693.167 117.345 641.146H117.365ZM377.045 725.996C363.615 693.996 343.395 666.966 318.255 643.306C277.405 604.836 243.245 580.556 211.815 531.566C204.345 519.936 197.415 507.757 191.315 495.366L221.535 482.887C239.665 505.997 260.065 527.276 282.625 546.106C344.925 598.126 426.355 634.106 462.425 711.376C434.605 719.266 405.995 724.826 377.045 726.006V725.996ZM499.885 697.516C497.985 698.276 492.875 700.946 491.585 700.116L458.115 647.666C512.295 621.086 553.475 569.416 572.625 512.626C610.505 523.496 632.305 557.306 641.235 593.616C602.835 636.556 553.945 676.126 499.885 697.516ZM668.715 556.916C667.265 557.236 667.495 555.796 667.135 554.756C663.305 543.666 661.955 533.336 656.355 522.306C645.735 501.396 624.735 485.776 618.745 462.706C613.745 443.466 617.705 426.846 621.225 407.866C626.625 414.726 629.705 423.147 635.275 429.977C645.705 442.786 661.105 452.186 670.265 466.276C687.825 493.326 684.965 529.996 668.715 556.906V556.916Z" fill="#083D77"/>
<path d="M361.975 351.936C368.685 351.916 375.515 350.206 379.285 346.546C381.065 344.806 384.865 339.516 380.705 338.496C379.005 338.076 370.215 340.006 366.885 340.166C365.305 340.246 363.665 340.306 361.975 340.326C360.295 340.296 358.655 340.246 357.075 340.166C353.745 340.006 344.945 338.076 343.255 338.496C339.095 339.516 342.885 344.806 344.675 346.546C348.445 350.206 355.275 351.926 361.985 351.936H361.975Z" fill="#083D77"/>
</svg>
