<svg width="2267" height="1287" viewBox="0 0 2267 1287" fill="none" xmlns="http://www.w3.org/2000/svg">
<path d="M246.52 999.856C218.52 980.776 183.59 967.396 141.96 967.396C89.68 967.396 52.27 990.936 52.27 1030.09C52.27 1062.3 78.29 1079.89 132.3 1086.33L165.25 1090.29C222.49 1097.23 273.53 1121.51 273.53 1181.47C273.53 1250.1 211.09 1285.78 136.27 1285.78C85.97 1285.78 32.7 1267.94 0 1241.18L21.8 1209.47C45.83 1229.79 90.93 1248.12 136.02 1248.12C189.79 1248.12 232.16 1226.32 232.16 1184.94C232.16 1151.24 203.17 1134.39 148.16 1128.2L113.22 1124.24C54 1117.55 10.89 1090.05 10.89 1032.56C10.89 966.646 69.61 929.726 142.21 929.726C194.98 929.726 234.88 945.336 266.84 967.636L246.52 999.846V999.856Z" fill="#46ABD3"/>
<path d="M676.95 1107.64C676.95 1211.7 601.13 1286.04 497.81 1286.04C394.49 1286.04 318.67 1211.71 318.67 1107.64C318.67 1003.57 394.74 929.236 497.81 929.236C600.88 929.236 676.95 1003.57 676.95 1107.64ZM360.55 1107.64C360.55 1191.14 420.02 1247.63 497.82 1247.63C575.62 1247.63 635.33 1191.14 635.33 1107.64C635.33 1024.14 575.86 967.646 497.82 967.646C419.78 967.646 360.55 1024.14 360.55 1107.64Z" fill="#46ABD3"/>
<path d="M1103.32 1281.08H1063.43V978.796L942.52 1242.68H900.65L779.98 980.786V1281.09H740.09V934.206H800.55L921.71 1196.35L1042.62 934.206H1103.32V1281.09V1281.08Z" fill="#46ABD3"/>
<path d="M1486.39 1281.08H1443.77L1404.37 1184.45H1232.66L1193.51 1281.08H1152.13L1294.6 934.196H1343.91L1486.38 1281.08H1486.39ZM1248.03 1146.79H1389.26L1318.64 973.596L1248.03 1146.79Z" fill="#46ABD3"/>
<path d="M1791 964.926L1579.16 1243.43H1791.75V1281.09H1526.14V1250.37L1738.23 971.866H1528.61V934.206H1791V964.926Z" fill="#46ABD3"/>
<path d="M2171.48 1107.64C2171.48 1211.7 2095.66 1286.04 1992.34 1286.04C1889.02 1286.04 1813.2 1211.71 1813.2 1107.64C1813.2 1003.57 1889.27 929.236 1992.34 929.236C2095.41 929.236 2171.48 1003.57 2171.48 1107.64ZM1855.08 1107.64C1855.08 1191.14 1914.55 1247.63 1992.35 1247.63C2070.15 1247.63 2129.86 1191.14 2129.86 1107.64C2129.86 1024.14 2070.39 967.646 1992.35 967.646C1914.31 967.646 1855.08 1024.14 1855.08 1107.64Z" fill="#46ABD3"/>
<path d="M2266.78 1281.08H2226.89V934.196H2266.78V1281.08Z" fill="#46ABD3"/>
<path d="M1256.81 168.106C1243.92 118.966 1216.13 126.016 1182.06 103.046C1169.05 94.2555 1158.83 82.1855 1149.64 69.6655C1131.44 105.086 1097.29 131.946 1062.13 149.556C1061.8 151.416 1063.79 150.826 1065.09 150.776C1076.92 150.206 1082.56 148.476 1094.64 152.856C1127 164.546 1129.37 197.856 1127.96 227.736C1127.54 236.716 1122.6 259.276 1124.63 266.206C1128.21 278.446 1154.22 269.006 1159.97 270.766C1164.07 272.016 1164.69 276.516 1162.52 279.876C1151.86 296.356 1118.03 292.286 1110.9 274.066C1107.33 264.976 1112.05 251.516 1112.64 241.766C1113.6 225.626 1114.33 195.166 1102.83 182.866C1095.96 175.526 1082.11 170.336 1072.16 169.476C1057.26 168.206 1031.64 171.366 1024.33 186.346C1014.79 205.846 1019.83 246.166 1025.11 267.046C1039.01 321.946 1106.15 411.166 1170.57 376.066C1234.46 341.236 1275 237.406 1256.81 168.106ZM1049.63 218.656C1038.67 210.216 1042.59 198.066 1053.86 201.466C1056.24 202.186 1061.26 206.906 1065.8 208.356C1073.22 210.716 1079.96 211.006 1087.38 208.656C1090.97 207.526 1098.07 200.986 1101.13 207.116C1105.03 214.926 1091.39 223.586 1085.04 225.106C1073.1 227.976 1059.42 226.206 1049.62 218.656H1049.63ZM1158.49 342.486C1154.39 346.466 1146.96 348.326 1139.66 348.346C1132.36 348.326 1124.93 346.466 1120.83 342.486C1118.88 340.596 1114.76 334.836 1119.29 333.726C1121.14 333.266 1130.7 335.366 1134.32 335.546C1136.04 335.636 1137.82 335.686 1139.65 335.716C1141.49 335.686 1143.27 335.626 1144.99 335.546C1148.61 335.376 1158.18 333.276 1160.02 333.726C1164.56 334.836 1160.42 340.586 1158.49 342.486ZM1180.58 314.826C1169.5 321.526 1154.04 323.776 1139.65 324.016C1125.27 323.776 1109.81 321.526 1098.73 314.826C1096.7 313.606 1095.7 311.056 1096.59 308.846C1098.62 303.876 1107.51 307.286 1113.24 307.016C1117.06 306.846 1121.72 306.166 1125.12 306.296C1132.32 306.576 1135.11 309.246 1139.65 308.996C1144.21 309.246 1146.99 306.586 1154.19 306.296C1157.58 306.166 1162.25 306.836 1166.07 307.016C1171.8 307.286 1180.68 303.876 1182.71 308.846C1183.61 311.056 1182.61 313.606 1180.58 314.826ZM1230.51 218.656C1220.71 226.206 1207.04 227.976 1195.1 225.106C1188.75 223.586 1175.11 214.926 1179.01 207.116C1182.07 200.996 1189.17 207.526 1192.75 208.656C1200.18 211.006 1206.92 210.716 1214.34 208.356C1218.89 206.906 1223.89 202.186 1226.27 201.466C1237.55 198.066 1241.48 210.216 1230.51 218.656ZM1245.24 169.866C1243.03 177.636 1224.1 170.036 1217.78 169.536C1203.87 168.436 1180.91 171.636 1172.76 184.396C1168.7 190.736 1166.96 202.676 1165.68 210.216C1164.24 218.666 1164.27 234.396 1161.71 241.486C1160.51 244.766 1156.84 246.826 1153.42 245.696C1150.43 244.786 1149.55 239.766 1149.2 236.936C1145 202.066 1152.47 154.936 1194.62 149.876C1205.42 148.566 1216.74 149.556 1226.92 153.336C1232.5 155.396 1247.32 162.516 1245.24 169.856V169.866Z" fill="#46ABD3"/>
<path d="M1414.78 286.226C1429.32 311.216 1425.88 336.286 1420.45 363.366L1412.43 340.266C1395.23 297.866 1348.38 274.036 1342.93 225.916C1364.29 249.226 1398.26 257.856 1414.78 286.226Z" fill="#46ABD3"/>
<path d="M1316.48 212.986C1320.91 232.196 1320.84 252.026 1328.24 270.546C1343.41 308.456 1383.36 328.276 1391.71 369.206C1397.94 399.816 1386.34 427.476 1388.75 457.926C1389.91 472.676 1395.54 487.536 1401.65 500.826C1400.89 501.586 1387.5 494.206 1385.17 493.236C1378.22 490.336 1367.54 488.976 1364.33 482.366C1351.7 456.376 1362.37 430.406 1366.09 404.776C1376.15 335.776 1315.56 318.536 1295.05 262.646C1284.74 234.586 1292.05 216.896 1289.9 189.076C1288.94 176.686 1285.54 164.436 1280.66 153.086C1299.4 168.156 1311.13 189.706 1316.49 212.996L1316.48 212.986Z" fill="#46ABD3"/>
<path d="M883.02 500.886C877.91 503.896 872.7 506.926 867.91 510.446C860.75 515.686 854.92 522.046 848.31 527.266C847.13 528.196 846.81 529.536 844.77 529.006C851.42 508.056 846.78 485.536 848.45 463.976C856.14 365.116 967.44 380.436 990.77 292.606L995.14 275.266C1003.6 298.896 1005.86 320.056 994.18 343.006C974.11 382.446 931.56 391.086 904.73 422.736C886.84 443.846 876.86 473.456 883.02 500.886Z" fill="#46ABD3"/>
<path d="M931.23 442.176C946.71 422.496 970.06 413.916 989.19 399.106C1007.63 384.826 1022.27 365.756 1026.29 342.236C1038.4 354.536 1037.49 372.276 1034.58 388.106C1026.35 432.816 980.04 455.976 942.72 473.646C939.89 474.986 916.29 486.656 915.28 485.556C916.66 470.036 921.53 454.536 931.23 442.186V442.176Z" fill="#46ABD3"/>
<path d="M1331.16 474.976L1299.49 464.336C1305.91 443.166 1312.07 424.376 1305.93 402.116C1301.42 385.776 1288.06 372.936 1280.44 358.276C1269.74 337.666 1269.41 319.056 1275.91 296.946C1276.4 295.246 1275.23 294.886 1278.27 295.226C1289.29 327.896 1331.68 349.486 1334.66 385.126C1336.02 401.376 1329.62 416.656 1327.77 432.236C1326.11 446.146 1326.91 461.616 1331.14 474.976H1331.16Z" fill="#46ABD3"/>
<path d="M1270.06 446.776C1243.94 424.096 1237.97 385.436 1244.24 352.816L1254.19 375.156C1269.54 397.696 1283.64 419.036 1270.06 446.786V446.776Z" fill="#46ABD3"/>
<path d="M1069.19 376.296C1084.14 389.276 1100.25 402.286 1119.95 407.166C1154.51 415.726 1184.98 399.946 1208.98 376.296V407.426C1208.98 427.666 1226.88 457.716 1243.04 469.706L1264.09 484.836C1232.24 526.356 1190.32 558.766 1146.72 587.156L1144.77 586.886C1101.24 557.096 1057.75 526.516 1019.86 489.656C1055.68 462.476 1072.5 421.056 1069.19 376.296Z" fill="#46ABD3"/>
<path d="M1221.29 574.805C1248.22 551.865 1274.58 527.426 1293.72 497.396L1340.57 512.586C1331.66 539.346 1314.86 565.155 1296.53 586.605C1280.21 605.695 1250.92 631.785 1228.57 643.185C1226.56 644.205 1222.73 646.955 1220.76 645.985L1176.1 608.305L1221.29 574.815V574.805Z" fill="#46ABD3"/>
<path d="M1016.34 51.4756C1060.38 -2.4744 1143.21 -12.4544 1205.07 14.2356C1256.26 36.3156 1286.31 84.6856 1304.14 135.436L1290.6 123.736C1256.91 89.8156 1186.98 87.6656 1167.3 40.2556C1162.28 28.1856 1165.22 16.3056 1147.36 19.2056C1139.13 20.5456 1134.82 33.2756 1129.69 39.1156C1113.77 57.2656 1082.24 59.3356 1060.05 65.8156C1031.62 74.1156 1004.23 87.8656 982.81 108.416C994.22 90.1356 1002.63 68.2556 1016.34 51.4656V51.4756Z" fill="#46ABD3"/>
<path d="M853.61 289.366C859.64 265.186 851.2 242.166 859.22 217.446C870.24 183.506 908.52 163.666 938.77 149.566C915.61 174.596 913.2 206.716 903.84 237.396C894.29 268.636 876.04 287.046 848.32 303.466C849.71 298.596 852.36 294.346 853.61 289.366Z" fill="#46ABD3"/>
<path d="M817.75 506.096C816.12 529.766 806.72 553.086 790.15 570.116L789.03 568.176C778.81 550.506 776.62 529.486 782.13 509.826C785.74 496.966 785.72 482.566 784.86 469.696C784 456.996 779.79 443.566 779.01 430.916C774.01 349.846 856.01 348.236 902.38 304.056C936.71 271.336 931.02 238.666 947.97 199.276C965.72 158.026 1004 120.346 1045.27 102.726C1064.13 94.6757 1084.81 91.5557 1103.24 82.5857L1092.7 93.7557C1045.86 127.826 994.73 144.346 974.01 204.156C956.66 254.236 979.66 291.506 927.4 329.086C886.99 358.146 845.47 365.866 825.98 419.146C813.7 452.716 820.01 473.436 817.76 506.096H817.75Z" fill="#46ABD3"/>
<path d="M873.59 662.915C860.04 651.735 846.4 639.505 835.47 626.015C845.53 585.865 866.34 551.095 902.44 529.695C908.22 526.275 921.46 518.925 927.37 516.995C928.43 516.645 929.38 515.485 930.59 516.585C945.06 551.275 963.5 585.885 986.96 615.335C1027.02 665.605 1087.49 697.965 1118.51 755.745C1028.97 753.665 942.22 719.485 873.59 662.905V662.915Z" fill="#46ABD3"/>
<path d="M1156.05 755.216C1141.44 720.406 1119.45 691.006 1092.11 665.276C1047.67 623.436 1010.52 597.026 976.34 543.736C968.22 531.086 960.68 517.836 954.04 504.366L986.91 490.786C1006.62 515.916 1028.82 539.066 1053.35 559.546C1121.11 616.126 1209.68 655.266 1248.92 739.306C1218.66 747.886 1187.54 753.926 1156.05 755.226V755.216Z" fill="#46ABD3"/>
<path d="M1289.66 724.236C1287.59 725.056 1282.03 727.966 1280.63 727.066L1244.22 670.016C1303.15 641.106 1347.94 584.906 1368.77 523.136C1409.97 534.966 1433.69 571.736 1443.4 611.226C1401.63 657.936 1348.46 700.966 1289.66 724.236Z" fill="#46ABD3"/>
<path d="M1473.3 571.306C1471.72 571.656 1471.97 570.086 1471.58 568.956C1467.42 556.896 1465.95 545.656 1459.86 533.666C1448.3 510.916 1425.46 493.936 1418.95 468.846C1413.51 447.916 1417.82 429.836 1421.64 409.196C1427.52 416.656 1430.87 425.816 1436.92 433.246C1448.26 447.176 1465.02 457.406 1474.97 472.736C1494.07 502.166 1490.96 542.046 1473.29 571.306H1473.3Z" fill="#46ABD3"/>
</svg>
