<svg width="283" height="86" viewBox="0 0 283 86" fill="none" xmlns="http://www.w3.org/2000/svg">
<path d="M266.295 0.371811H16.3259C7.30951 0.371811 0 7.66464 0 16.6641V68.9073C0 77.9067 7.30951 85.2021 16.3259 85.2021H266.295C275.31 85.2021 282.62 77.9067 282.62 68.9073V16.6641C282.62 7.66464 275.31 0.371811 266.295 0.371811Z" fill="#E8E8E8"/>
<path d="M63.9015 34.0299L56.2941 41.5703L33.9612 18.8789C35.0814 18.2067 36.5411 18.0998 37.8326 18.8502L63.9015 34.0299Z" fill="#191919"/>
<path d="M64.0881 51.9455L37.8328 67.2347C36.2627 68.1492 34.4435 67.7922 33.2891 66.6927L56.2935 44.0013L64.0881 51.9455Z" fill="#191919"/>
<path d="M72.892 46.3151L65.3648 50.6976L65.3052 50.7314L57.5112 42.7872L65.1186 35.2443L65.1776 35.2807L72.892 39.7727C75.4017 41.2317 75.4017 44.8534 72.892 46.3151Z" fill="#191919"/>
<path d="M32.0718 65.4785C32.0559 65.4629 32.0399 65.4473 32.024 65.4316C31.3452 64.7646 30.9084 63.8318 30.9084 62.7479V23.3369C30.9084 21.9326 31.6428 20.7809 32.6863 20.1295C32.7057 20.1165 32.7247 20.1061 32.744 20.0931L55.077 42.7871L32.0718 65.4785Z" fill="#191919"/>
<path d="M116.536 48.4089H113.496H105.616V51.4287H113.273C112.356 54.7898 109.276 57.2624 105.616 57.2624C101.233 57.2624 97.6798 53.7189 97.6798 49.3443C97.6798 44.9696 101.233 41.4235 105.616 41.4235C107.687 41.4235 109.573 42.2156 110.986 43.5131L113.127 41.3792C111.165 39.5345 108.523 38.4037 105.616 38.4037C99.5619 38.4037 94.6545 43.3021 94.6545 49.3443C94.6545 55.3865 99.5619 60.2822 105.616 60.2822C111.669 60.2822 116.577 55.3865 116.577 49.3443C116.577 49.029 116.562 48.7163 116.536 48.4089Z" fill="#191919"/>
<path d="M125.162 57.4328C123.044 57.4328 121.326 55.5829 121.326 53.3005C121.326 51.018 123.044 49.1655 125.162 49.1655C127.281 49.1655 128.999 51.018 128.999 53.3005C128.999 55.5829 127.281 57.4328 125.162 57.4328ZM125.162 46.1483C121.291 46.1483 118.153 49.301 118.153 53.1884C118.153 57.0784 121.291 60.2285 125.162 60.2285C129.034 60.2285 132.172 57.0784 132.172 53.1884C132.172 49.301 129.034 46.1483 125.162 46.1483Z" fill="#191919"/>
<path d="M140.758 57.4328C138.639 57.4328 136.921 55.5829 136.921 53.3005C136.921 51.018 138.639 49.1655 140.758 49.1655C142.877 49.1655 144.594 51.018 144.594 53.3005C144.594 55.5829 142.877 57.4328 140.758 57.4328ZM140.758 46.1483C136.887 46.1483 133.748 49.301 133.748 53.1884C133.748 57.0784 136.887 60.2285 140.758 60.2285C144.629 60.2285 147.767 57.0784 147.767 53.1884C147.767 49.301 144.629 46.1483 140.758 46.1483Z" fill="#191919"/>
<path d="M166.924 38.4036V60.5088H163.899V38.4036H166.924Z" fill="#191919"/>
<path d="M178.414 50.124L171.54 52.8102C171.581 52.3751 171.691 51.9478 171.871 51.5387C172.312 50.5304 173.121 49.754 174.148 49.3527C174.637 49.1599 175.146 49.0687 175.649 49.0687C176.661 49.0687 177.651 49.4387 178.414 50.124ZM179.363 54.9963C178.908 55.9264 178.125 56.6456 177.159 57.0234C176.132 57.4272 175.01 57.4038 174 56.9634C173.356 56.682 172.807 56.2547 172.39 55.7154L182.667 51.6977L182.508 51.1636C182.449 50.9655 182.382 50.7727 182.31 50.5877C181.613 48.8134 180.266 47.4142 178.517 46.6508C176.767 45.8874 174.825 45.8509 173.047 46.544C171.269 47.2396 169.868 48.5841 169.104 50.3298C168.339 52.0755 168.301 54.014 168.997 55.791C169.693 57.5653 171.04 58.9619 172.79 59.7253C173.708 60.1265 174.679 60.3271 175.652 60.3271C176.533 60.3271 177.415 60.1604 178.26 59.8321C179.963 59.1651 181.331 57.891 182.113 56.2417L182.381 55.6789L179.619 54.4726L179.363 54.9963Z" fill="#191919"/>
<path d="M155.696 57.4312C153.776 57.4312 152.219 55.5812 152.219 53.2988C152.219 51.0164 153.776 49.1639 155.696 49.1639C157.616 49.1639 159.173 51.0164 159.173 53.2988C159.173 55.5812 157.616 57.4312 155.696 57.4312ZM159.297 46.1467V47.3869C158.274 46.6053 157.033 46.1467 155.696 46.1467C152.188 46.1467 149.344 49.2993 149.344 53.1868C149.344 57.0768 152.188 60.2269 155.696 60.2269C157.033 60.2269 158.274 59.7709 159.297 58.9867V60.5083C159.297 61.3759 158.67 63.7912 155.815 63.7912C152.961 63.7912 152.157 61.2456 152.157 61.2456L149.415 62.5197C149.415 62.5197 150.446 66.54 156.087 66.54C159.143 66.54 160.717 64.7683 161.519 63.1477C162.063 62.0481 162.323 60.8314 162.323 59.6042V46.1467H159.297Z" fill="#191919"/>
<path d="M196.175 38.4036V60.5088H193.149V38.4036H196.175Z" fill="#191919"/>
<path d="M200.41 38.4035V41.4233C202.528 41.4233 204.246 43.2732 204.246 45.5583C204.246 47.8407 202.528 49.6906 200.41 49.6906V52.4863C204.282 52.4863 207.42 49.3337 207.42 45.4462C207.42 41.5562 204.282 38.4035 200.41 38.4035Z" fill="#191919"/>
<path d="M195.328 41.4248H200.41V38.405H195.328V41.4248Z" fill="#191919"/>
<path d="M195.328 52.4863H200.41V49.6906H195.328V52.4863Z" fill="#191919"/>
<path d="M212.02 38.4036V60.5088H208.994V38.4036H212.02Z" fill="#191919"/>
<path d="M220.323 57.762C219.866 58.0408 219.359 58.1789 218.816 58.1789C218.163 58.1789 217.641 58.007 217.265 57.6682C216.882 57.3217 216.686 56.8475 216.686 56.2534C216.686 55.9069 216.754 55.5943 216.887 55.3233C217.023 55.0471 217.237 54.81 217.524 54.6198C217.803 54.4322 218.166 54.2915 218.602 54.2029C219.025 54.1143 219.539 54.0674 220.132 54.0674H221.719V56.5348L221.667 56.5948C221.215 57.1028 220.764 57.4963 220.323 57.762ZM221.907 58.5776L222.278 58.1789V60.292H224.826V51.1701C224.826 50.3233 224.722 49.5807 224.521 48.9684C224.325 48.3692 224.009 47.8741 223.581 47.4989C223.15 47.1159 222.589 46.8293 221.915 46.6443C221.226 46.4567 220.38 46.3603 219.404 46.3603C218.855 46.3603 218.318 46.4046 217.801 46.4932C217.284 46.5818 216.801 46.6964 216.365 46.8345C215.986 46.9544 215.644 47.0872 215.349 47.2253L215.511 49.6146C215.696 49.5208 215.908 49.4218 216.14 49.3202C216.511 49.1534 216.942 49.0023 217.422 48.8668C217.91 48.7287 218.472 48.6584 219.088 48.6584C219.565 48.6584 219.975 48.7105 220.304 48.8095C220.649 48.9163 220.931 49.0857 221.142 49.3124C221.351 49.5364 221.503 49.8178 221.591 50.1513C221.678 50.4692 221.719 50.8392 221.719 51.2561V52.241H220.263C219.145 52.241 218.153 52.3269 217.315 52.4937C216.485 52.6604 215.785 52.9158 215.232 53.2571C214.691 53.5932 214.279 54.0231 214.007 54.5338C213.733 55.0471 213.595 55.662 213.595 56.3681C213.595 57.0195 213.704 57.5953 213.921 58.0799C214.135 58.5593 214.441 58.9684 214.827 59.2941C215.219 59.6224 215.691 59.8725 216.226 60.0393C216.772 60.2086 217.378 60.292 218.03 60.292C218.814 60.292 219.537 60.1409 220.179 59.8412C220.821 59.5416 221.403 59.1143 221.907 58.5776Z" fill="#191919"/>
<path d="M236.838 46.3841L234.627 51.4857L233.269 54.6228L232.347 52.4993L229.698 46.3841H226.4L230.7 56.3007L231.658 58.5128L229.162 64.5967H232.46L234.629 59.0938L236.277 55.2898L240.135 46.3841H236.838Z" fill="#191919"/>
<path d="M113.014 30.1742C113.014 30.2498 113.008 30.3123 112.997 30.3697C112.985 30.427 112.967 30.4739 112.942 30.513C112.916 30.552 112.887 30.5833 112.853 30.6015C112.819 30.6224 112.782 30.6328 112.743 30.6328H107.607C107.506 30.6328 107.401 30.5937 107.294 30.5182C107.186 30.4426 107.133 30.3019 107.133 30.0987V20.2212C107.133 20.0179 107.186 19.8799 107.294 19.8017C107.401 19.7261 107.506 19.6897 107.607 19.6897H112.666C112.706 19.6897 112.743 19.6975 112.777 19.7183C112.811 19.7392 112.839 19.7678 112.861 19.8069C112.884 19.846 112.901 19.8955 112.912 19.9554C112.923 20.0153 112.929 20.0831 112.929 20.1613C112.929 20.2342 112.923 20.2993 112.912 20.3567C112.901 20.414 112.884 20.4609 112.861 20.4974C112.839 20.5338 112.811 20.5599 112.777 20.5807C112.743 20.6016 112.706 20.6094 112.666 20.6094H108.167V24.4577H112.048C112.093 24.4577 112.132 24.4682 112.166 24.489C112.2 24.5072 112.229 24.5359 112.251 24.5724C112.273 24.6089 112.29 24.6584 112.302 24.7157C112.313 24.7756 112.319 24.8434 112.319 24.9241C112.319 24.9971 112.313 25.0596 112.302 25.1143C112.29 25.1664 112.273 25.2107 112.251 25.2446C112.229 25.2785 112.2 25.3045 112.166 25.3202C112.132 25.3384 112.093 25.3462 112.048 25.3462H108.167V29.7105H112.743C112.782 29.7105 112.819 29.7209 112.853 29.7391C112.887 29.76 112.916 29.7886 112.942 29.8251C112.967 29.8616 112.985 29.9085 112.997 29.9684C113.008 30.0283 113.014 30.0961 113.014 30.1742Z" fill="#191919"/>
<path d="M122.259 20.1606C122.259 20.2335 122.253 20.2987 122.242 20.356C122.231 20.4133 122.214 20.4602 122.191 20.4967C122.169 20.5332 122.141 20.5592 122.107 20.5801C122.073 20.6009 122.036 20.6087 121.996 20.6087H118.725V30.4628C118.725 30.4967 118.717 30.5279 118.7 30.5566C118.683 30.5826 118.655 30.6061 118.615 30.6217C118.576 30.64 118.522 30.653 118.454 30.666C118.387 30.6764 118.305 30.6816 118.209 30.6816C118.112 30.6816 118.031 30.6764 117.963 30.666C117.895 30.653 117.841 30.64 117.802 30.6217C117.762 30.6061 117.734 30.5826 117.717 30.5566C117.7 30.5279 117.692 30.4967 117.692 30.4628V20.6087H114.421C114.375 20.6087 114.337 20.6009 114.306 20.5801C114.275 20.5592 114.248 20.5332 114.226 20.4967C114.203 20.4602 114.186 20.4133 114.175 20.356C114.164 20.2987 114.158 20.2335 114.158 20.1606C114.158 20.0824 114.164 20.0147 114.175 19.9547C114.186 19.8948 114.203 19.8453 114.226 19.8062C114.248 19.7671 114.275 19.7385 114.306 19.7176C114.337 19.6968 114.375 19.689 114.421 19.689H121.996C122.036 19.689 122.073 19.6968 122.107 19.7176C122.141 19.7385 122.169 19.7671 122.191 19.8062C122.214 19.8453 122.231 19.8948 122.242 19.9547C122.253 20.0147 122.259 20.0824 122.259 20.1606Z" fill="#191919"/>
<path d="M128.962 30.4628C128.962 30.4967 128.954 30.5279 128.937 30.5566C128.92 30.5826 128.891 30.6061 128.852 30.6217C128.813 30.64 128.76 30.653 128.695 30.666C128.63 30.6764 128.547 30.6816 128.445 30.6816C128.349 30.6816 128.267 30.6764 128.2 30.666C128.132 30.653 128.078 30.64 128.039 30.6217C127.999 30.6061 127.971 30.5826 127.954 30.5566C127.937 30.5279 127.928 30.4967 127.928 30.4628V19.8557C127.928 19.8245 127.938 19.7932 127.958 19.7645C127.978 19.7359 128.009 19.7124 128.051 19.6968C128.094 19.6786 128.147 19.6655 128.212 19.6551C128.277 19.6421 128.355 19.6369 128.445 19.6369C128.547 19.6369 128.63 19.6421 128.695 19.6551C128.76 19.6655 128.813 19.6786 128.852 19.6968C128.891 19.7124 128.92 19.7359 128.937 19.7645C128.954 19.7932 128.962 19.8245 128.962 19.8557V30.4628Z" fill="#191919"/>
<path d="M138.809 20.1606C138.809 20.2335 138.803 20.2987 138.792 20.356C138.78 20.4133 138.763 20.4602 138.741 20.4967C138.718 20.5332 138.69 20.5592 138.656 20.5801C138.622 20.6009 138.585 20.6087 138.546 20.6087H135.275V30.4628C135.275 30.4967 135.266 30.5279 135.249 30.5566C135.232 30.5826 135.204 30.6061 135.165 30.6217C135.125 30.64 135.072 30.653 135.004 30.666C134.936 30.6764 134.854 30.6816 134.758 30.6816C134.662 30.6816 134.58 30.6764 134.512 30.666C134.445 30.653 134.391 30.64 134.351 30.6217C134.312 30.6061 134.283 30.5826 134.266 30.5566C134.25 30.5279 134.241 30.4967 134.241 30.4628V20.6087H130.97C130.925 20.6087 130.887 20.6009 130.856 20.5801C130.825 20.5592 130.798 20.5332 130.775 20.4967C130.753 20.4602 130.736 20.4133 130.724 20.356C130.713 20.2987 130.707 20.2335 130.707 20.1606C130.707 20.0824 130.713 20.0147 130.724 19.9547C130.736 19.8948 130.753 19.8453 130.775 19.8062C130.798 19.7671 130.825 19.7385 130.856 19.7176C130.887 19.6968 130.925 19.689 130.97 19.689H138.546C138.585 19.689 138.622 19.6968 138.656 19.7176C138.69 19.7385 138.718 19.7671 138.741 19.8062C138.763 19.8453 138.78 19.8948 138.792 19.9547C138.803 20.0147 138.809 20.0824 138.809 20.1606Z" fill="#191919"/>
<path d="M152.198 25.1257C152.198 24.4769 152.137 23.8698 152.016 23.3018C151.894 22.7364 151.694 22.2414 151.414 21.8219C151.134 21.4024 150.763 21.0715 150.3 20.8318C149.837 20.5921 149.263 20.4722 148.58 20.4722C147.902 20.4722 147.33 20.5999 146.864 20.85C146.398 21.1001 146.019 21.4362 145.728 21.8609C145.437 22.283 145.228 22.7755 145.101 23.3409C144.974 23.9037 144.91 24.4977 144.91 25.1257C144.91 25.7901 144.968 26.4102 145.084 26.9808C145.2 27.554 145.396 28.0517 145.673 28.4737C145.95 28.8958 146.32 29.2267 146.783 29.4664C147.246 29.7062 147.825 29.826 148.52 29.826C149.21 29.826 149.788 29.6983 150.257 29.443C150.726 29.185 151.105 28.8411 151.393 28.4112C151.681 27.9787 151.887 27.481 152.012 26.913C152.136 26.3476 152.198 25.751 152.198 25.1257ZM153.299 25.0319C153.299 25.9047 153.199 26.6968 152.999 27.4029C152.798 28.1116 152.497 28.7161 152.096 29.2137C151.695 29.714 151.19 30.097 150.579 30.368C149.969 30.6389 149.258 30.7744 148.444 30.7744C147.631 30.7744 146.931 30.6467 146.347 30.3888C145.762 30.1335 145.282 29.7661 144.906 29.2893C144.53 28.8125 144.254 28.2314 144.076 27.5436C143.898 26.8557 143.809 26.0793 143.809 25.2169C143.809 24.3596 143.907 23.5832 144.105 22.8849C144.303 22.184 144.604 21.5874 145.008 21.0949C145.411 20.6025 145.917 20.2195 146.525 19.9485C147.132 19.6775 147.845 19.542 148.664 19.542C149.461 19.542 150.15 19.6697 150.732 19.9224C151.314 20.1778 151.795 20.54 152.177 21.0142C152.558 21.4884 152.841 22.0642 153.024 22.739C153.208 23.4164 153.299 24.1799 153.299 25.0319Z" fill="#191919"/>
<path d="M163.706 30.1319C163.706 30.2335 163.69 30.3195 163.659 30.3872C163.628 30.455 163.588 30.5097 163.54 30.5514C163.492 30.5931 163.438 30.6217 163.379 30.64C163.32 30.6556 163.265 30.666 163.214 30.666H163.002C162.889 30.666 162.786 30.6504 162.693 30.6217C162.6 30.5957 162.509 30.5462 162.422 30.4758C162.334 30.4055 162.246 30.3091 162.159 30.1918C162.071 30.0746 161.974 29.9208 161.867 29.7358L158.002 22.9016C157.81 22.5681 157.617 22.2267 157.422 21.875C157.227 21.5207 157.042 21.1793 156.867 20.8458H156.858C156.864 21.2575 156.867 21.6796 156.867 22.1121C156.867 22.542 156.867 22.9641 156.867 23.3758V30.4628C156.867 30.4967 156.858 30.5279 156.841 30.5566C156.824 30.5826 156.796 30.6061 156.757 30.6217C156.717 30.64 156.665 30.653 156.6 30.666C156.535 30.6764 156.452 30.6816 156.35 30.6816C156.254 30.6816 156.172 30.6764 156.104 30.666C156.037 30.653 155.983 30.64 155.943 30.6217C155.904 30.6061 155.876 30.5826 155.859 30.5566C155.842 30.5279 155.833 30.4967 155.833 30.4628V20.2205C155.833 20.0173 155.887 19.8792 155.994 19.801C156.101 19.7255 156.206 19.689 156.308 19.689H156.731C156.867 19.689 156.98 19.6994 157.07 19.7228C157.161 19.7437 157.243 19.7828 157.316 19.8349C157.389 19.8896 157.462 19.9652 157.532 20.0642C157.603 20.1632 157.681 20.2882 157.765 20.4394L160.723 25.6765C160.909 26.0021 161.086 26.3174 161.252 26.6196C161.419 26.9193 161.581 27.2163 161.739 27.5055C161.898 27.7973 162.054 28.0839 162.21 28.3653C162.365 28.6467 162.519 28.9307 162.672 29.22H162.68C162.675 28.7457 162.672 28.2533 162.672 27.74C162.672 27.2267 162.672 26.7317 162.672 26.2601V19.8896C162.672 19.8557 162.68 19.8271 162.697 19.7984C162.714 19.7697 162.742 19.7463 162.782 19.7255C162.821 19.7072 162.874 19.6916 162.939 19.6838C163.004 19.676 163.087 19.6707 163.189 19.6707C163.279 19.6707 163.358 19.676 163.426 19.6838C163.494 19.6916 163.547 19.7072 163.587 19.7255C163.626 19.7463 163.656 19.7697 163.676 19.7984C163.696 19.8271 163.706 19.8557 163.706 19.8896V30.1319Z" fill="#191919"/>
<path d="M94.6545 25.1506C94.6545 28.1052 97.0611 30.5049 100.019 30.5049C102.978 30.5049 105.384 28.1052 105.384 25.1506C105.384 25.0776 105.383 25.002 105.379 24.9239H100.273V25.9661H104.276L104.189 26.2866C103.679 28.1573 101.964 29.4653 100.019 29.4653C97.6368 29.4653 95.6983 27.5294 95.6983 25.1506C95.6983 22.7743 97.6368 20.8384 100.019 20.8384C101.024 20.8384 101.989 21.185 102.76 21.8181L103.501 21.0781C102.531 20.2496 101.304 19.7962 100.019 19.7962C97.0611 19.7962 94.6545 22.1985 94.6545 25.1506Z" fill="#191919"/>
</svg>
