<svg width="975" height="1151" viewBox="0 0 975 1151" fill="none" xmlns="http://www.w3.org/2000/svg">
<path d="M732.384 512.928L812.634 593.179C829.102 609.647 838.337 631.961 838.337 655.258V845.886C838.337 869.166 829.085 891.498 812.634 907.966L732.384 988.216C715.916 1004.68 693.602 1013.92 670.304 1013.92H260.238C236.958 1013.92 214.627 1004.67 198.159 988.216C186.519 976.576 179.97 960.793 179.97 944.325V860.3C179.97 848.186 170.138 838.355 158.025 838.355C145.928 838.355 136.097 828.523 136.097 816.409V772.518C136.097 760.404 145.928 750.572 158.042 750.572H377.498C389.612 750.572 399.443 760.404 399.443 772.518V816.409C399.443 828.523 409.275 838.355 421.389 838.355H640.844C652.958 838.355 662.79 828.523 662.79 816.409V684.736C662.79 672.622 652.958 662.79 640.844 662.79H304.129C280.849 662.79 258.518 653.538 242.05 637.087L161.799 556.837C145.331 540.369 136.097 518.055 136.097 494.757V304.129C136.097 280.849 145.349 258.518 161.799 242.05L242.067 161.799C258.518 145.349 280.849 136.097 304.129 136.097H733.542C744.498 136.097 755.049 140.187 763.143 147.578L831.929 210.413C839.654 218.138 840.514 230.357 833.965 239.1L752.767 339.295C744.427 349.583 731.91 355.552 718.672 355.552H567.476C544.196 355.552 521.864 346.3 505.396 329.85L493.651 318.104C489.543 313.996 483.96 311.679 478.131 311.679H333.607C321.493 311.679 311.661 321.51 311.661 333.624V465.298C311.661 477.411 321.493 487.243 333.607 487.243H670.322C693.602 487.243 715.933 496.495 732.401 512.946L732.384 512.928Z" fill="#FFF7E2"/>
<path d="M333.607 487.243C321.682 487.243 311.969 477.716 311.668 465.864L311.661 465.298V333.624C311.661 321.699 321.188 311.986 333.041 311.686L333.607 311.679H478.131C483.96 311.679 489.543 313.996 493.651 318.104L505.396 329.85C521.864 346.3 544.196 355.552 567.476 355.552H718.672C731.91 355.552 744.427 349.583 752.767 339.295L833.965 239.1C840.514 230.357 839.654 218.138 831.929 210.413L763.143 147.578C755.176 140.303 744.827 136.225 734.056 136.099L733.542 136.097L733.543 0C778.099 4.82621e-05 821.062 16.5204 854.139 46.3749L854.919 47.0822L854.926 47.0889L854.932 47.0948L925.989 112.003L928.164 114.178C983.854 169.868 989.943 257.872 942.895 320.688L941.336 322.768L858.502 424.983L858.493 424.994C855.269 428.971 851.891 432.791 848.373 436.448L908.869 496.944C950.888 538.963 974.433 595.905 974.433 655.258V845.887C974.433 905.27 950.839 962.186 908.921 1004.15L828.618 1084.45C786.6 1126.47 729.657 1150.02 670.304 1150.02H260.238C200.855 1150.02 143.938 1126.42 101.975 1084.5L101.924 1084.45C64.799 1047.33 43.8733 996.942 43.8733 944.325V925.687C16.6925 897.292 7.55041e-05 858.784 0 816.409V772.518C9.47812e-05 721.967 23.7391 676.957 60.6756 648.027C21.7238 606.554 0 551.768 0 494.757V304.129C6.79386e-05 244.746 23.5952 187.829 65.5134 145.866L145.843 65.554C187.818 23.5841 244.764 6.3351e-05 304.129 0L304.129 136.097C280.849 136.097 258.518 145.349 242.067 161.799L161.799 242.05L161.034 242.826C145.062 259.216 136.097 281.213 136.097 304.129V494.757C136.097 518.055 145.331 540.369 161.799 556.837L242.05 637.087C258.518 653.538 280.849 662.79 304.129 662.79H640.844C652.958 662.79 662.79 672.622 662.79 684.736V816.409L662.783 816.975C662.483 828.828 652.769 838.354 640.844 838.355H421.389L420.823 838.347C409.158 838.051 399.746 828.64 399.451 816.975L399.443 816.409V772.518C399.443 760.404 389.612 750.572 377.498 750.572L158.025 750.572C145.919 750.582 136.097 760.41 136.097 772.518V816.409C136.097 828.523 145.928 838.355 158.025 838.355C170.138 838.355 179.97 848.186 179.97 860.3V944.325C179.97 960.793 186.519 976.576 198.159 988.216C214.627 1004.67 236.958 1013.92 260.238 1013.92H670.304C693.602 1013.92 715.916 1004.68 732.384 988.216L812.634 907.966C828.828 891.755 838.046 869.863 838.33 846.977L838.337 845.886V655.258C838.337 632.325 829.389 610.344 813.401 593.955L812.634 593.179L732.384 512.928L732.401 512.946C715.933 496.495 693.602 487.243 670.322 487.243H333.607ZM733.543 0L733.542 136.097H304.129L304.129 0H733.543Z" fill="#083D77"/>
</svg>
