<svg width="1142" height="1142" viewBox="0 0 1142 1142" fill="none" xmlns="http://www.w3.org/2000/svg">
<path d="M1028.28 113.414V232.12C1028.28 293.087 978.862 342.51 917.895 342.51H647.214V875.555H840.018V1028.29H306.217V875.555H494.484V342.51H221.535C161.821 342.51 113.414 294.102 113.414 234.389V113.414H1028.28Z" fill="#FFF7E2"/>
<path d="M840.018 875.554H647.215V342.51H917.895C978.862 342.51 1028.28 293.087 1028.28 232.12V113.414H113.414V234.388C113.414 294.102 161.821 342.51 221.535 342.51H494.484V875.554H306.217V1028.28H840.018V875.554ZM1141.7 232.12C1141.7 355.723 1041.5 455.923 917.895 455.923H760.628V762.141H953.432V1141.7H192.803V762.141H381.07V455.923H221.535C99.1846 455.923 0 356.739 0 234.388V0H1141.7V232.12Z" fill="#083D77"/>
</svg>
