<svg width="652" height="695" viewBox="0 0 652 695" fill="none" xmlns="http://www.w3.org/2000/svg">
<path d="M439.48 154.539C427.63 109.359 402.08 115.839 370.76 94.7286C358.8 86.6486 349.4 75.5486 340.95 64.0386C324.22 96.5986 292.82 121.299 260.5 137.489C260.2 139.199 262.03 138.659 263.22 138.609C274.1 138.089 279.28 136.499 290.39 140.519C320.14 151.269 322.32 181.889 321.02 209.359C320.63 217.619 316.09 238.359 317.96 244.729C321.25 255.979 345.16 247.299 350.45 248.919C354.22 250.069 354.79 254.209 352.79 257.299C342.99 272.449 311.89 268.709 305.33 251.959C302.05 243.599 306.39 231.229 306.93 222.259C307.81 207.419 308.48 179.419 297.91 168.109C291.59 161.359 278.86 156.589 269.71 155.799C256.01 154.629 232.46 157.539 225.74 171.309C216.97 189.239 221.6 226.309 226.46 245.499C239.24 295.969 300.97 377.999 360.19 345.729C418.93 313.709 456.2 218.249 439.48 154.539ZM249 201.019C238.92 193.259 242.53 182.089 252.89 185.219C255.08 185.879 259.69 190.219 263.87 191.549C270.69 193.719 276.89 193.989 283.71 191.829C287.01 190.789 293.54 184.779 296.35 190.409C299.94 197.589 287.4 205.549 281.56 206.949C270.58 209.589 258.01 207.959 249 201.019ZM349.08 314.859C345.31 318.519 338.48 320.229 331.77 320.249C325.06 320.229 318.23 318.519 314.46 314.859C312.67 313.119 308.88 307.829 313.04 306.809C314.74 306.389 323.53 308.319 326.86 308.479C328.44 308.559 330.08 308.609 331.76 308.639C333.45 308.609 335.09 308.559 336.67 308.479C340 308.319 348.8 306.389 350.49 306.809C354.66 307.829 350.86 313.119 349.08 314.859ZM369.39 289.429C359.2 295.589 344.99 297.659 331.76 297.879C318.54 297.659 304.33 295.589 294.14 289.429C292.27 288.309 291.35 285.959 292.17 283.929C294.04 279.359 302.21 282.499 307.48 282.249C310.99 282.089 315.28 281.469 318.4 281.589C325.02 281.849 327.58 284.299 331.76 284.069C335.95 284.299 338.51 281.849 345.13 281.589C348.25 281.469 352.54 282.089 356.05 282.249C361.32 282.499 369.48 279.359 371.35 283.929C372.18 285.959 371.26 288.309 369.39 289.429ZM415.3 201.019C406.29 207.959 393.72 209.589 382.74 206.949C376.9 205.549 364.36 197.589 367.95 190.409C370.76 184.779 377.29 190.789 380.58 191.829C387.41 193.989 393.61 193.719 400.43 191.549C404.61 190.219 409.21 185.879 411.4 185.219C421.77 182.089 425.38 193.259 415.3 201.019ZM428.84 156.159C426.81 163.299 409.4 156.319 403.59 155.859C390.8 154.849 369.69 157.789 362.2 169.519C358.47 175.349 356.87 186.329 355.69 193.259C354.37 201.029 354.39 215.489 352.04 222.009C350.94 225.029 347.56 226.919 344.42 225.879C341.67 225.039 340.86 220.429 340.54 217.829C336.68 185.769 343.55 142.439 382.3 137.789C392.23 136.589 402.64 137.499 412 140.969C417.13 142.859 430.76 149.409 428.84 156.159Z" fill="#FFF7E2"/>
<path d="M584.701 263.138C598.071 286.118 594.901 309.158 589.911 334.058L582.541 312.818C566.731 273.828 523.661 251.928 518.641 207.688C538.281 229.118 569.511 237.058 584.701 263.138Z" fill="#FFF7E2"/>
<path d="M494.34 195.808C498.42 213.468 498.35 231.698 505.15 248.728C519.09 283.588 555.83 301.808 563.5 339.428C569.23 367.568 558.56 393.008 560.78 420.998C561.85 434.558 567.03 448.228 572.64 460.438C571.94 461.138 559.63 454.358 557.49 453.458C551.1 450.788 541.28 449.548 538.33 443.458C526.72 419.558 536.53 395.688 539.95 372.128C549.2 308.698 493.5 292.838 474.64 241.458C465.16 215.658 471.88 199.398 469.91 173.818C469.02 162.428 465.9 151.168 461.42 140.738C478.65 154.598 489.43 174.408 494.36 195.818L494.34 195.808Z" fill="#FFF7E2"/>
<path d="M95.8202 460.498C91.1202 463.268 86.3302 466.048 81.9302 469.288C75.3502 474.108 69.9902 479.958 63.9102 484.758C62.8302 485.608 62.5302 486.848 60.6602 486.358C66.7802 467.098 62.5102 446.388 64.0402 426.568C71.1102 335.688 173.44 349.768 194.88 269.018L198.9 253.078C206.68 274.798 208.76 294.258 198.01 315.358C179.56 351.618 140.44 359.558 115.77 388.658C99.3202 408.068 90.1402 435.288 95.8102 460.508L95.8202 460.498Z" fill="#FFF7E2"/>
<path d="M140.14 406.518C154.37 388.428 175.84 380.538 193.42 366.918C210.38 353.788 223.83 336.258 227.53 314.628C238.66 325.938 237.83 342.238 235.15 356.798C227.58 397.898 185.01 419.188 150.7 435.438C148.1 436.668 126.4 447.398 125.47 446.388C126.73 432.118 131.22 417.868 140.14 406.518Z" fill="#FFF7E2"/>
<path d="M507.82 436.678L478.7 426.898C484.6 407.428 490.26 390.158 484.62 369.688C480.47 354.668 468.19 342.858 461.19 329.388C451.35 310.438 451.05 293.328 457.03 272.998C457.48 271.428 456.4 271.108 459.2 271.418C469.33 301.458 508.3 321.308 511.05 354.068C512.3 369.008 506.41 383.058 504.72 397.378C503.2 410.168 503.93 424.388 507.82 436.678Z" fill="#FFF7E2"/>
<path d="M451.651 410.748C427.631 389.898 422.141 354.348 427.921 324.358L437.061 344.898C451.181 365.618 464.131 385.248 451.651 410.748Z" fill="#FFF7E2"/>
<path d="M266.98 345.948C280.73 357.878 295.53 369.848 313.65 374.328C345.43 382.198 373.44 367.688 395.5 345.948V374.568C395.5 393.178 411.96 420.808 426.81 431.828L446.17 445.738C416.89 483.908 378.35 513.708 338.26 539.808L336.47 539.558C296.45 512.168 256.47 484.058 221.63 450.168C254.56 425.178 270.03 387.098 266.98 345.948Z" fill="#FFF7E2"/>
<path d="M406.81 528.458C431.57 507.368 455.8 484.898 473.4 457.288L516.47 471.248C508.28 495.848 492.83 519.578 475.98 539.298C460.98 556.848 434.04 580.838 413.5 591.318C411.65 592.258 408.13 594.788 406.32 593.888L365.26 559.248L406.81 528.458Z" fill="#FFF7E2"/>
<path d="M218.39 47.3183C258.88 -2.27165 335.04 -11.4517 391.91 13.0883C438.97 33.3883 466.6 77.8584 482.99 124.518L470.54 113.768C439.56 82.5883 375.28 80.6084 357.18 37.0183C352.56 25.9183 355.27 14.9983 338.85 17.6583C331.28 18.8883 327.32 30.5984 322.61 35.9683C307.98 52.6583 278.99 54.5583 258.58 60.5183C232.45 68.1483 207.26 80.7984 187.57 99.6884C198.06 82.8784 205.79 62.7683 218.39 47.3383V47.3183Z" fill="#FFF7E2"/>
<path d="M68.7804 266.029C74.3204 243.799 66.5604 222.639 73.9404 199.909C84.0704 168.709 119.27 150.459 147.08 137.499C125.79 160.509 123.57 190.039 114.97 218.249C106.19 246.969 89.4104 263.889 63.9204 278.989C65.2004 274.519 67.6404 270.599 68.7804 266.029Z" fill="#FFF7E2"/>
<path d="M35.8103 465.278C34.3103 487.038 25.6703 508.478 10.4303 524.138L9.40034 522.358C0.000336647 506.108 -2.00966 486.788 3.07034 468.708C6.39034 456.878 6.37034 443.648 5.58034 431.818C4.79034 420.148 0.920336 407.788 0.200336 396.158C-4.38966 321.628 70.9903 320.148 113.62 279.528C145.18 249.448 139.95 219.418 155.53 183.198C171.85 145.268 207.04 110.628 244.99 94.4285C262.33 87.0285 281.34 84.1585 298.28 75.9185L288.59 86.1885C245.53 117.508 198.52 132.698 179.47 187.688C163.52 233.728 184.67 267.988 136.62 302.548C99.4703 329.268 61.3003 336.368 43.3803 385.348C32.0903 416.218 37.8903 435.258 35.8303 465.288L35.8103 465.278Z" fill="#FFF7E2"/>
<path d="M87.1501 609.458C74.6901 599.178 62.1501 587.938 52.1001 575.528C61.3501 538.618 80.4801 506.648 113.67 486.978C118.99 483.828 131.16 477.078 136.59 475.308C137.56 474.988 138.44 473.928 139.55 474.928C152.85 506.818 169.8 538.638 191.37 565.718C228.2 611.938 283.79 641.688 312.31 694.808C229.98 692.898 150.23 661.478 87.1301 609.458H87.1501Z" fill="#FFF7E2"/>
<path d="M346.84 694.318C333.41 662.318 313.19 635.288 288.05 611.628C247.2 573.158 213.04 548.878 181.61 499.888C174.14 488.258 167.21 476.078 161.11 463.688L191.33 451.208C209.46 474.318 229.86 495.598 252.42 514.428C314.72 566.448 396.15 602.428 432.22 679.698C404.4 687.588 375.79 693.148 346.84 694.328V694.318Z" fill="#FFF7E2"/>
<path d="M469.67 665.838C467.77 666.598 462.66 669.268 461.37 668.438L427.9 615.988C482.08 589.408 523.26 537.738 542.41 480.948C580.29 491.818 602.09 525.628 611.02 561.938C572.62 604.878 523.73 644.448 469.67 665.838Z" fill="#FFF7E2"/>
<path d="M638.5 525.238C637.05 525.558 637.28 524.118 636.92 523.078C633.09 511.988 631.74 501.658 626.14 490.628C615.52 469.718 594.52 454.098 588.53 431.028C583.53 411.788 587.49 395.168 591.01 376.188C596.41 383.048 599.49 391.468 605.06 398.298C615.49 411.108 630.89 420.508 640.05 434.598C657.61 461.648 654.75 498.318 638.5 525.228V525.238Z" fill="#FFF7E2"/>
</svg>
